<svg id="Layer_1" data-name="Layer 1" xmlns="http://www.w3.org/2000/svg" viewBox="0 0 200 200.011"><title>desktop</title><g id="desktop"><path d="M99.994-.006a99.992,99.992,0,0,0-7.278,199.719c2.406,0.169,4.824.292,7.278,0.292a100.006,100.006,0,0,0,99.883-95.248C199.951,103.181,200,101.6,200,100A100.006,100.006,0,0,0,99.994-.006Z" transform="translate(0 0.006)" style="fill:#37bfda"/><path d="M111.358,143v5.918a2.551,2.551,0,0,0,1.725,2.414l13.847,4.738a2.551,2.551,0,0,1-.826,4.963H73.9a2.551,2.551,0,0,1-.794-4.975l14.471-4.741a2.551,2.551,0,0,0,1.756-2.423v-5.89a2.551,2.551,0,0,1,2.551-2.551h16.933A2.551,2.551,0,0,1,111.358,143Z" transform="translate(0 0.006)" style="fill:#f5f9fa"/><rect x="39.044" y="46.331" width="121.911" height="99.036" rx="15.573" ry="15.573" style="fill:#f5f9fa"/><rect x="47.891" y="56.071" width="104.217" height="66.42" rx="3.311" ry="3.311" style="fill:#f79046"/></g></svg>