<svg xmlns="http://www.w3.org/2000/svg" xmlns:xlink="http://www.w3.org/1999/xlink" viewBox="0 0 491.083 163"><defs><linearGradient id="linear-gradient" x1="298.196" y1="94.588" x2="353.993" y2="161.084" gradientUnits="userSpaceOnUse"><stop offset="0" stop-color="#f79046"/><stop offset="0.143" stop-color="#f79046" stop-opacity="0.972"/><stop offset="0.35" stop-color="#f79046" stop-opacity="0.894"/><stop offset="0.596" stop-color="#f69046" stop-opacity="0.768"/><stop offset="0.707" stop-color="#f69046" stop-opacity="0.701"/><stop offset="0.973" stop-color="#f59047" stop-opacity="0.519"/><stop offset="1" stop-color="#f59047" stop-opacity="0.5"/></linearGradient></defs><title>intro</title><g id="svg-intro-logo"><path id="svg-intro-circle" d="M300,18.5a81.489,81.489,0,0,0-5.931,162.762C296.03,181.4,298,181.5,300,181.5a81.5,81.5,0,0,0,81.4-77.623c0.06-1.285.1-2.576,0.1-3.877A81.5,81.5,0,0,0,300,18.5Z" transform="translate(-54.983 -18.5)" style="fill:#36bed9"/><path id="svg-intro-shadow" d="M381.4,103.877L346.353,60.388,253.2,132.341l40.865,48.921C296.03,181.4,298,181.5,300,181.5A81.5,81.5,0,0,0,381.4,103.877Z" transform="translate(-54.983 -18.5)" style="fill:url(#linear-gradient)"/><g id="svg-intro-computer"><path d="M309.256,135.047v4.823a2.079,2.079,0,0,0,1.406,1.967l11.285,3.861a2.079,2.079,0,0,1-.673,4.045H278.727a2.079,2.079,0,0,1-.647-4.054l11.793-3.864a2.079,2.079,0,0,0,1.431-1.975v-4.8a2.079,2.079,0,0,1,2.079-2.079h13.8A2.079,2.079,0,0,1,309.256,135.047Z" transform="translate(-54.983 -18.5)" style="fill:#f5f9fa"/><rect x="195.341" y="37.758" width="99.352" height="80.71" rx="12.691" ry="12.691" style="fill:#f5f9fa"/></g><rect id="svg-intro-screen" x="202.551" y="45.695" width="84.932" height="54.129" rx="2.698" ry="2.698" style="fill:#f79044"/><g id="svg-intro-code"><polyline points="221.937 60.575 242.017 72.76 221.937 84.944" style="fill:none;stroke:#f5f9fa;stroke-linecap:round;stroke-linejoin:round;stroke-width:3.460725357970695px"/><line id="svg-intro-underscore" x1="248.017" y1="84.944" x2="271.371" y2="84.944" style="fill:none;stroke:#f5f9fa;stroke-linecap:round;stroke-linejoin:round;stroke-width:3.460725357970695px"/></g></g><g id="svg-intro-icon6" class="svg-intro-icon"><polygon points="3.657 54.955 0.017 14.125 40.017 14.125 36.373 54.948 19.993 59.49 3.657 54.955" style="fill:#f79044"/><polygon points="20.017 32.607 13.391 32.607 12.933 27.479 20.017 27.479 20.017 22.471 20 22.471 7.46 22.471 7.58 23.815 8.811 37.614 20.017 37.614 20.017 32.607" style="fill:#36bed9"/><polygon points="20.017 45.612 19.995 45.618 14.418 44.112 14.062 40.118 11.352 40.118 9.035 40.118 9.736 47.981 19.994 50.828 20.017 50.822 20.017 45.612" style="fill:#36bed9"/><polygon points="20 32.607 20 37.614 26.166 37.614 25.585 44.109 20 45.616 20 50.826 30.266 47.981 30.341 47.135 31.518 33.952 31.64 32.607 30.291 32.607 20 32.607" style="fill:#36bed9"/><polygon points="20 22.471 20 25.581 20 27.467 20 27.479 32.079 27.479 32.079 27.479 32.096 27.479 32.196 26.353 32.424 23.815 32.544 22.471 20 22.471" style="fill:#36bed9"/></g><g id="svg-intro-icon5" class="svg-intro-icon"><polygon points="3.64 137.562 0 96.732 40 96.732 36.356 137.555 19.976 142.096 3.64 137.562" style="fill:#36bed9"/><polygon points="20 114.863 26.626 114.863 27.084 109.735 20 109.735 20 104.727 20.017 104.727 32.557 104.727 32.437 106.071 31.206 119.87 20 119.87 20 114.863" style="fill:#f5f9fa"/><polygon points="20.03 127.868 20.008 127.874 14.431 126.368 14.075 122.374 11.365 122.374 9.048 122.374 9.749 130.237 20.007 133.085 20.03 133.078 20.03 127.868" style="fill:#f5f9fa"/><polygon points="26.201 119.658 25.598 126.365 20.013 127.872 20.013 133.082 30.279 130.237 30.354 129.391 31.225 119.658 26.201 119.658" style="fill:#f5f9fa"/><polygon points="20.017 104.727 20.017 107.838 20.017 109.723 20.017 109.735 7.938 109.735 7.938 109.735 7.922 109.735 7.821 108.61 7.593 106.071 7.473 104.727 20.017 104.727" style="fill:#f5f9fa"/><polygon points="20 114.863 20 117.974 20 119.859 20 119.871 14.51 119.871 14.51 119.871 14.494 119.871 14.393 118.746 14.165 116.207 14.045 114.863 20 114.863" style="fill:#f5f9fa"/></g><g id="svg-intro-icon4" class="svg-intro-icon"><rect x="65.182" y="48.113" width="59.669" height="60" style="fill:#f79044"/><path d="M174.951,112.3c-0.437-2.738-2.212-5.036-7.47-7.181-1.826-.844-3.863-1.449-4.469-2.84a3.114,3.114,0,0,1-.108-1.757c0.391-1.591,2.28-2.087,3.778-1.631a4.165,4.165,0,0,1,2.428,2.264c2.575-1.677,2.569-1.665,4.367-2.817a11.185,11.185,0,0,0-1.441-1.939c-1.548-1.74-3.658-2.635-7.033-2.567-0.584.074-1.174,0.154-1.758,0.228a7.968,7.968,0,0,0-4.231,2.51,7.884,7.884,0,0,0,1.418,11.184c3.386,2.555,8.36,3.137,9,5.527,0.618,2.926-2.138,3.873-4.878,3.536-2.019-.422-3.142-1.454-4.356-3.331-2.235,1.3-2.235,1.3-4.532,2.629a10.138,10.138,0,0,0,2.031,2.778c4.322,4.409,15.138,4.192,17.078-2.481A8.282,8.282,0,0,0,174.951,112.3ZM152.6,94.189h-5.581c0,4.848-.023,9.662-0.023,14.51,0,3.086.159,5.914-.34,6.781-0.817,1.705-2.932,1.494-3.9,1.163a4.805,4.805,0,0,1-2.059-2.15,2.891,2.891,0,0,0-.318-0.513q-2.272,1.394-4.538,2.795a9,9,0,0,0,3.29,3.787,10.782,10.782,0,0,0,7.975.987,7.053,7.053,0,0,0,4.5-3.547c1.271-2.356,1-5.207.987-8.361C152.632,104.5,152.6,99.351,152.6,94.189Z" transform="translate(-54.983 -18.5)" style="fill:#f5f9fa"/></g><g id="svg-intro-icon3" class="svg-intro-icon"><path d="M447.543,71.14a5.031,5.031,0,0,1,4.912,0q11.217,6.338,22.436,12.673a4.619,4.619,0,0,1,2.333,3.978v25.422a4.669,4.669,0,0,1-2.507,4.064q-11.18,6.3-22.356,12.612a4.889,4.889,0,0,1-4.966-.138q-3.352-1.943-6.708-3.878a3.953,3.953,0,0,1-1.294-.932,2.461,2.461,0,0,1,1.209-.6,15.665,15.665,0,0,0,2.646-1.235,0.617,0.617,0,0,1,.689.041c1.911,1.1,3.8,2.223,5.722,3.308a1.2,1.2,0,0,0,1.173-.272q10.971-6.2,21.951-12.387a0.726,0.726,0,0,0,.4-0.715q0.008-12.58,0-25.161a0.787,0.787,0,0,0-.468-0.784q-11.142-6.274-22.278-12.556a0.774,0.774,0,0,0-.875,0q-11.14,6.278-22.276,12.562a0.777,0.777,0,0,0-.471.781q0,12.58,0,25.162a0.711,0.711,0,0,0,.4.706q2.973,1.686,5.949,3.36a4.6,4.6,0,0,0,3.72.5,2.822,2.822,0,0,0,1.827-2.651c0.01-8.337-.005-16.676.008-25.012a0.628,0.628,0,0,1,.684-0.641c0.952-.006,1.906-0.013,2.858,0a0.66,0.66,0,0,1,.622.763c0,8.39.01,16.781-.006,25.171,0,2.236-.916,4.669-2.984,5.763a9.192,9.192,0,0,1-8.215-.226c-2.179-1.088-4.259-2.371-6.4-3.536a4.659,4.659,0,0,1-2.506-4.065V87.79a4.627,4.627,0,0,1,2.413-4.028q11.178-6.309,22.354-12.622h0Z" transform="translate(-54.983 -18.5)" style="fill:#36bed9"/><path d="M454.045,88.75c3.25-.209,6.73-0.124,9.655,1.477a7.3,7.3,0,0,1,3.56,6.318,0.684,0.684,0,0,1-.742.5c-0.943,0-1.886.013-2.829-.006a0.729,0.729,0,0,1-.683-0.707,4.308,4.308,0,0,0-2.06-2.977,12.214,12.214,0,0,0-5.652-.809,7.673,7.673,0,0,0-4.046,1.008,2.157,2.157,0,0,0,.961,4.031c3.917,1.024,8.068.923,11.91,2.271a5.607,5.607,0,0,1,3.691,3.284,7.015,7.015,0,0,1-1.188,6.692,9.378,9.378,0,0,1-5.034,2.713,24.192,24.192,0,0,1-7.6.323,11.976,11.976,0,0,1-6.685-2.515,7.015,7.015,0,0,1-2.259-5.534,0.634,0.634,0,0,1,.694-0.559c0.95-.008,1.9-0.01,2.849,0a0.665,0.665,0,0,1,.68.658,4.318,4.318,0,0,0,1.606,3.031c1.93,1.245,4.352,1.16,6.562,1.195,1.831-.081,3.886-0.106,5.38-1.316a2.972,2.972,0,0,0,.809-2.838,2.564,2.564,0,0,0-1.862-1.485c-3.867-1.223-8.064-.779-11.893-2.162a5.789,5.789,0,0,1-3.655-3.186,6.524,6.524,0,0,1,1.3-6.788,10.516,10.516,0,0,1,6.529-2.623h0Z" transform="translate(-54.983 -18.5)" style="fill:#36bed9"/></g><g id="svg-intro-icon2" class="svg-intro-icon"><path d="M526.024,77.741l-1.2-.409s0.146-6.107-2.045-6.545c-1.461-1.695.234-71.883,5.493-.234a4.273,4.273,0,0,0-2.133,2.455,22.539,22.539,0,0,0-.117,4.734h0Z" transform="translate(-54.983 -18.5)" style="fill:#f5f9fa"/><path d="M526.667,71.839s10.49-6.9,8.036-21.244c-2.367-10.432-7.948-13.85-8.562-15.165a14.743,14.743,0,0,1-1.315-2.571l0.439,29.016c0,0.029-.906,8.883,1.4,9.964" transform="translate(-54.983 -18.5)" style="fill:#f79044"/><path d="M524.213,72.218s-9.847-6.721-9.263-18.555c0.555-11.834,7.51-17.649,8.854-18.7a2.72,2.72,0,0,0,.965-2.221c0.613,1.315.5,19.666,0.584,21.828,0.263,8.328-.468,16.072-1.14,17.649h0Z" transform="translate(-54.983 -18.5)" style="fill:#f79044"/></g><g id="svg-intro-icon1" class="svg-intro-icon"><polygon points="469.775 97.371 448.603 104.822 451.949 132.561 469.798 142.371 487.739 132.428 491.083 104.69 469.775 97.371" style="fill:#f5f9fa"/><polygon points="488.971 106.293 469.726 99.73 469.726 140.027 485.854 131.101 488.971 106.293" style="fill:#f79044"/><polygon points="450.979 106.412 453.846 131.22 469.726 140.027 469.726 99.73 450.979 106.412" style="fill:#f79044"/><path d="M530.007,139.682l-5.3,2.477h-5.584l-2.625,6.565-4.882.09,13.09-29.121Zm-0.512-1.247-4.75-9.4-3.9,9.242h3.861Z" transform="translate(-54.983 -18.5)" style="fill:#36bed9"/><polygon points="469.726 101.194 469.761 110.531 474.182 119.78 469.736 119.78 469.726 123.654 475.874 123.66 478.748 130.316 483.419 130.403 469.726 101.194" style="fill:#36bed9"/></g></svg>