<svg id="Layer_1" data-name="Layer 1" xmlns="http://www.w3.org/2000/svg" viewBox="0 0 200 200.011"><title>ipad</title><g id="ipad"><path d="M99.994-.006a99.992,99.992,0,0,0-7.278,199.719c2.406,0.169,4.824.292,7.278,0.292a100.006,100.006,0,0,0,99.883-95.248C199.951,103.181,200,101.6,200,100A100.006,100.006,0,0,0,99.994-.006Z" transform="translate(0 0.006)" style="fill:#37bfda"/><path d="M54.333,148.89V51.11c0-9.265,6.43-16.776,14.361-16.776h62.61c7.932,0,14.361,7.511,14.361,16.776V148.89c0,9.265-6.43,16.776-14.361,16.776H68.695C60.763,165.667,54.333,158.156,54.333,148.89Z" transform="translate(0 0.006)" style="fill:#f5f9fa"/><path d="M62.333,141.915V50.976c0-1.7,1.681-3.085,3.755-3.085h67.824c2.074,0,3.755,1.381,3.755,3.085v90.939c0,1.7-1.681,3.085-3.755,3.085H66.088C64.014,145,62.333,143.619,62.333,141.915Z" transform="translate(0 0.006)" style="fill:#f79046"/><path d="M100,151.322a3.625,3.625,0,0,0-.264,7.24c0.087,0.006.175,0.011,0.264,0.011a3.625,3.625,0,0,0,3.621-3.453c0-.057,0-0.115,0-0.172A3.625,3.625,0,0,0,100,151.322Z" transform="translate(0 0.006)" style="fill:#37bfda"/></g></svg>