<svg id="Layer_1" data-name="Layer 1" xmlns="http://www.w3.org/2000/svg" viewBox="0 0 200 200.011"><title>link-website</title><path d="M99.994-.006a99.992,99.992,0,0,0-7.278,199.719c2.406,0.169,4.824.292,7.278,0.292a100.006,100.006,0,0,0,99.883-95.248C199.951,103.181,200,101.6,200,100A100.006,100.006,0,0,0,99.994-.006Z" transform="translate(0 0.006)" style="fill:#37bfda"/><rect x="53.055" y="53.061" width="93.89" height="93.89" style="fill:#f5f9fa"/><path d="M153.4,46.6A21.668,21.668,0,0,0,137.5,40h-75A22.538,22.538,0,0,0,40,62.5v75A22.539,22.539,0,0,0,62.5,160h75A22.54,22.54,0,0,0,160,137.5v-75A21.676,21.676,0,0,0,153.4,46.6ZM140,102.5a4.673,4.673,0,0,1-3.047,4.609,5.439,5.439,0,0,1-1.954.39,4.648,4.648,0,0,1-3.515-1.484l-11.249-11.25-41.717,41.72a4.907,4.907,0,0,1-7.033,0l-7.969-7.97a4.9,4.9,0,0,1,0-7.03l41.72-41.72-11.25-11.25a4.51,4.51,0,0,1-1.094-5.469A4.672,4.672,0,0,1,97.5,60H135a5.07,5.07,0,0,1,5,5v37.5h0Z" transform="translate(0 0.006)" style="fill:#f79048"/></svg>