<svg id="Layer_1" data-name="Layer 1" xmlns="http://www.w3.org/2000/svg" viewBox="0 0 200 200.011"><title>mobile</title><g id="mobile"><path d="M99.994-.006a99.992,99.992,0,0,0-7.278,199.719c2.406,0.169,4.824.292,7.278,0.292a100.006,100.006,0,0,0,99.883-95.248C199.951,103.181,200,101.6,200,100A100.006,100.006,0,0,0,99.994-.006Z" transform="translate(0 0.006)" style="fill:#37bfda"/><path d="M67.124,144.238V55.762c0-8.383,4.629-15.18,10.339-15.18h45.073c5.71,0,10.339,6.8,10.339,15.18v88.475c0,8.383-4.629,15.18-10.339,15.18H77.463C71.753,159.417,67.124,152.621,67.124,144.238Z" transform="translate(0 0.006)" style="fill:#f5f9fa"/><path d="M71.6,137.926V55.642a2.811,2.811,0,0,1,2.831-2.791h51.132a2.811,2.811,0,0,1,2.831,2.791v82.285a2.811,2.811,0,0,1-2.831,2.791H74.434A2.811,2.811,0,0,1,71.6,137.926Z" transform="translate(0 0.006)" style="fill:#f79046"/><path d="M100,146.438a3.28,3.28,0,0,0-.239,6.551c0.079,0.006.158,0.01,0.239,0.01a3.28,3.28,0,0,0,3.276-3.124c0-.052,0-0.1,0-0.156A3.28,3.28,0,0,0,100,146.438Z" transform="translate(0 0.006)" style="fill:#37bfda"/></g></svg>