<?xml version="1.0" encoding="utf-8"?>
<!-- Generator: Adobe Illustrator 19.2.1, SVG Export Plug-In . SVG Version: 6.00 Build 0)  -->
<svg version="1.1" xmlns="http://www.w3.org/2000/svg" xmlns:xlink="http://www.w3.org/1999/xlink" x="0px" y="0px"
	 viewBox="0 0 600 200" style="enable-background:new 0 0 600 200;" xml:space="preserve">
<style type="text/css">
	.st0{display:none;}
	.st1{fill:#36BED9;}
	.st2{fill:url(#svg-intro-shadow_1_);}
	.st3{fill:#F5F9FA;}
	.st4{fill:#F79044;}
	.st5{fill:none;stroke:#F5F9FA;stroke-width:3.4607;stroke-linecap:round;stroke-linejoin:round;stroke-miterlimit:10;}
</style>
<g id="guides" class="st0">
</g>
<g>
	<g id="svg-intro-logo">
		<path id="svg-intro-circle" class="st1" d="M300,18.5c-45,0-81.5,36.5-81.5,81.5c0,43,33.3,78.2,75.6,81.3c2,0.1,3.9,0.2,5.9,0.2
			c43.7,0,79.4-34.4,81.4-77.6c0.1-1.3,0.1-2.6,0.1-3.9C381.5,55,345,18.5,300,18.5z"/>
		
			<linearGradient id="svg-intro-shadow_1_" gradientUnits="userSpaceOnUse" x1="298.1958" y1="94.5882" x2="353.9928" y2="161.0844">
			<stop  offset="0" style="stop-color:#F79046"/>
			<stop  offset="0.7074" style="stop-color:#F69046;stop-opacity:0.7007"/>
			<stop  offset="1" style="stop-color:#F59047;stop-opacity:0.5"/>
		</linearGradient>
		<path id="svg-intro-shadow" class="st2" d="M381.4,103.9l-35-43.5l-93.1,72l40.9,48.9c2,0.1,3.9,0.2,5.9,0.2
			C343.7,181.5,379.4,147.1,381.4,103.9z"/>
		<g id="svg-intro-computer">
			<path class="st3" d="M309.3,135v4.8c0,0.9,0.6,1.7,1.4,2l11.3,3.9c2.2,0.8,1.7,4-0.7,4h-42.5c-2.4,0-2.9-3.3-0.6-4.1l11.8-3.9
				c0.9-0.3,1.4-1.1,1.4-2V135c0-1.1,0.9-2.1,2.1-2.1h13.8C308.3,133,309.3,133.9,309.3,135z"/>
			<path class="st3" d="M337,137h-74c-7,0-12.7-5.7-12.7-12.7V68.9c0-7,5.7-12.7,12.7-12.7h74c7,0,12.7,5.7,12.7,12.7v55.3
				C349.7,131.3,344,137,337,137z"/>
		</g>
		<path id="svg-intro-screen" class="st4" d="M339.8,118.3h-79.5c-1.5,0-2.7-1.2-2.7-2.7V66.9c0-1.5,1.2-2.7,2.7-2.7h79.5
			c1.5,0,2.7,1.2,2.7,2.7v48.7C342.5,117.1,341.3,118.3,339.8,118.3z"/>
		<g id="svg-intro-code">
			<polyline class="st5" points="276.9,79.1 297,91.3 276.9,103.4 			"/>
			<line id="svg-intro-underscore" class="st5" x1="303" y1="103.4" x2="326.4" y2="103.4"/>
		</g>
	</g>
	<g id="svg-intro-icon6">
		<polygon class="st4" points="58.6,73.5 55,32.6 95,32.6 91.4,73.4 75,78 		"/>
		<polygon class="st1" points="75,51.1 68.4,51.1 67.9,46 75,46 75,41 75,41 62.4,41 62.6,42.3 63.8,56.1 75,56.1 		"/>
		<polygon class="st1" points="75,64.1 75,64.1 69.4,62.6 69,58.6 66.3,58.6 64,58.6 64.7,66.5 75,69.3 75,69.3 		"/>
		<polygon class="st1" points="75,51.1 75,56.1 81.1,56.1 80.6,62.6 75,64.1 75,69.3 85.2,66.5 85.3,65.6 86.5,52.5 86.6,51.1 
			85.3,51.1 		"/>
		<polygon class="st1" points="75,41 75,44.1 75,46 75,46 87.1,46 87.1,46 87.1,46 87.2,44.9 87.4,42.3 87.5,41 		"/>
	</g>
	<g id="svg-intro-icon5">
		<polygon class="st1" points="58.6,156.1 55,115.2 95,115.2 91.3,156.1 75,160.6 		"/>
		<g>
			<polygon class="st3" points="75,133.4 81.6,133.4 82.1,128.2 75,128.2 75,123.2 75,123.2 87.5,123.2 87.4,124.6 86.2,138.4 
				75,138.4 			"/>
			<polygon class="st3" points="75,146.4 75,146.4 69.4,144.9 69.1,140.9 66.3,140.9 64,140.9 64.7,148.7 75,151.6 75,151.6 			"/>
			<polygon class="st3" points="81.2,138.2 80.6,144.9 75,146.4 75,151.6 85.3,148.7 85.3,147.9 86.2,138.2 			"/>
			<polygon class="st3" points="75,123.2 75,126.3 75,128.2 75,128.2 62.9,128.2 62.9,128.2 62.9,128.2 62.8,127.1 62.6,124.6 
				62.5,123.2 			"/>
			<polygon class="st3" points="75,133.4 75,136.5 75,138.4 75,138.4 69.5,138.4 69.5,138.4 69.5,138.4 69.4,137.2 69.1,134.7 
				69,133.4 			"/>
		</g>
	</g>
	<g id="svg-intro-icon4">
		<rect x="120.2" y="66.6" class="st4" width="59.7" height="60"/>
		<path class="st3" d="M175,112.3c-0.4-2.7-2.2-5-7.5-7.2c-1.8-0.8-3.9-1.4-4.5-2.8c-0.2-0.8-0.2-1.3-0.1-1.8
			c0.4-1.6,2.3-2.1,3.8-1.6c1,0.3,1.9,1.1,2.4,2.3c2.6-1.7,2.6-1.7,4.4-2.8c-0.7-1-1-1.5-1.4-1.9c-1.5-1.7-3.7-2.6-7-2.6
			c-0.6,0.1-1.2,0.2-1.8,0.2c-1.7,0.4-3.3,1.3-4.2,2.5c-2.8,3.2-2,8.9,1.4,11.2c3.4,2.6,8.4,3.1,9,5.5c0.6,2.9-2.1,3.9-4.9,3.5
			c-2-0.4-3.1-1.5-4.4-3.3c-2.2,1.3-2.2,1.3-4.5,2.6c0.5,1.2,1.1,1.7,2,2.8c4.3,4.4,15.1,4.2,17.1-2.5
			C174.8,116.2,175.4,114.7,175,112.3z M152.6,94.2H147c0,4.8,0,9.7,0,14.5c0,3.1,0.2,5.9-0.3,6.8c-0.8,1.7-2.9,1.5-3.9,1.2
			c-1-0.5-1.5-1.2-2.1-2.2c-0.2-0.3-0.3-0.5-0.3-0.5c-1.5,0.9-3,1.9-4.5,2.8c0.8,1.6,1.9,2.9,3.3,3.8c2.1,1.3,5,1.7,8,1
			c1.9-0.6,3.6-1.8,4.5-3.5c1.3-2.4,1-5.2,1-8.4C152.6,104.5,152.6,99.4,152.6,94.2z"/>
	</g>
	<g id="svg-intro-icon3">
		<path class="st1" d="M447.5,71.1c1.5-0.9,3.4-0.9,4.9,0c7.5,4.2,15,8.4,22.4,12.7c1.4,0.8,2.3,2.4,2.3,4v25.4c0,1.7-1,3.3-2.5,4.1
			c-7.5,4.2-14.9,8.4-22.4,12.6c-1.5,0.9-3.5,0.8-5-0.1c-2.2-1.3-4.5-2.6-6.7-3.9c-0.5-0.3-1-0.5-1.3-0.9c0.3-0.4,0.8-0.4,1.2-0.6
			c0.9-0.3,1.8-0.8,2.6-1.2c0.2-0.1,0.5-0.1,0.7,0c1.9,1.1,3.8,2.2,5.7,3.3c0.4,0.2,0.8-0.1,1.2-0.3c7.3-4.1,14.6-8.3,22-12.4
			c0.3-0.1,0.4-0.4,0.4-0.7c0-8.4,0-16.8,0-25.2c0-0.3-0.2-0.6-0.5-0.8c-7.4-4.2-14.9-8.4-22.3-12.6c-0.3-0.2-0.6-0.2-0.9,0
			c-7.4,4.2-14.8,8.4-22.3,12.6c-0.3,0.1-0.5,0.4-0.5,0.8c0,8.4,0,16.8,0,25.2c0,0.3,0.1,0.6,0.4,0.7c2,1.1,4,2.2,5.9,3.4
			c1.1,0.6,2.5,1,3.7,0.5c1.1-0.4,1.8-1.5,1.8-2.7c0-8.3,0-16.7,0-25c0-0.4,0.3-0.7,0.7-0.6c1,0,1.9,0,2.9,0c0.4,0,0.7,0.4,0.6,0.8
			c0,8.4,0,16.8,0,25.2c0,2.2-0.9,4.7-3,5.8c-2.5,1.3-5.7,1-8.2-0.2c-2.2-1.1-4.3-2.4-6.4-3.5c-1.5-0.8-2.5-2.4-2.5-4.1V87.8
			c0-1.7,1-3.2,2.4-4C432.6,79.6,440.1,75.3,447.5,71.1L447.5,71.1z"/>
		<path class="st1" d="M454,88.8c3.3-0.2,6.7-0.1,9.7,1.5c2.3,1.2,3.5,3.8,3.6,6.3c-0.1,0.3-0.4,0.5-0.7,0.5c-0.9,0-1.9,0-2.8,0
			c-0.4,0-0.6-0.4-0.7-0.7c-0.3-1.2-0.9-2.4-2.1-3c-1.7-0.9-3.8-0.8-5.7-0.8c-1.4,0.1-2.9,0.2-4,1c-0.9,0.6-1.2,1.9-0.9,2.9
			c0.3,0.7,1.1,1,1.8,1.2c3.9,1,8.1,0.9,11.9,2.3c1.6,0.5,3.1,1.6,3.7,3.3c0.7,2.2,0.4,4.9-1.2,6.7c-1.3,1.5-3.2,2.3-5,2.7
			c-2.5,0.6-5.1,0.6-7.6,0.3c-2.4-0.3-4.8-0.9-6.7-2.5c-1.6-1.4-2.3-3.5-2.3-5.5c0-0.3,0.4-0.6,0.7-0.6c0.9,0,1.9,0,2.8,0
			c0.4,0,0.7,0.3,0.7,0.7c0.2,1.1,0.6,2.4,1.6,3c1.9,1.2,4.4,1.2,6.6,1.2c1.8-0.1,3.9-0.1,5.4-1.3c0.8-0.7,1-1.8,0.8-2.8
			c-0.2-0.8-1.1-1.2-1.9-1.5c-3.9-1.2-8.1-0.8-11.9-2.2c-1.6-0.5-3.1-1.6-3.7-3.2c-0.8-2.3-0.5-5.1,1.3-6.8
			C449.2,89.7,451.7,89,454,88.8L454,88.8z"/>
	</g>
	<g id="svg-intro-icon2">
		<g>
			<g>
				<path class="st3" d="M526,77.7l-1.2-0.4c0,0,0.1-6.1-2-6.5c-1.5-1.7,0.2-71.9,5.5-0.2c0,0-1.8,0.9-2.1,2.5
					C525.8,74.5,526,77.7,526,77.7L526,77.7L526,77.7z"/>
				<path class="st4" d="M526.7,71.8c0,0,10.5-6.9,8-21.2c-2.4-10.4-7.9-13.9-8.6-15.2c-0.7-0.9-1.3-2.6-1.3-2.6l0.4,29
					C525.3,61.9,524.4,70.8,526.7,71.8"/>
				<path class="st4" d="M524.2,72.2c0,0-9.8-6.7-9.3-18.6c0.6-11.8,7.5-17.6,8.9-18.7c0.9-0.9,0.9-1.3,1-2.2
					c0.6,1.3,0.5,19.7,0.6,21.8C525.6,62.9,524.9,70.6,524.2,72.2L524.2,72.2L524.2,72.2z"/>
			</g>
		</g>
	</g>
	<g id="svg-intro-icon1">
		<polygon class="st3" points="524.8,115.9 503.6,123.3 506.9,151.1 524.8,160.9 542.7,150.9 546.1,123.2 		"/>
		<polygon class="st4" points="544,124.8 524.7,118.2 524.7,158.5 540.8,149.6 		"/>
		<polygon class="st4" points="506,124.9 508.8,149.7 524.7,158.5 524.7,118.2 		"/>
		<path class="st1" d="M530,139.7l-5.3,2.5h-5.6l-2.6,6.6l-4.9,0.1l13.1-29.1L530,139.7z M529.5,138.4l-4.8-9.4l-3.9,9.2h3.9
			L529.5,138.4z"/>
		<polygon class="st1" points="524.7,119.7 524.7,129 529.2,138.3 524.7,138.3 524.7,142.2 530.9,142.2 533.7,148.8 538.4,148.9 		
			"/>
	</g>
</g>
</svg>
