<svg xmlns="http://www.w3.org/2000/svg" xmlns:xlink="http://www.w3.org/1999/xlink" viewBox="0 0 200 200"><defs><linearGradient id="a" x1="98.97" y1="98.979" x2="199.995" y2="200.005" gradientUnits="userSpaceOnUse"><stop offset="0" stop-color="#171923" stop-opacity="0.5"/><stop offset="1" stop-color="#1f110a" stop-opacity="0"/></linearGradient><radialGradient id="b" cx="-182.93" cy="-127.563" r="0.21" gradientTransform="matrix(545.674, 0, 0, -528.311, 99894.631, -67333.558)" gradientUnits="userSpaceOnUse"><stop offset="0" stop-color="#453055" stop-opacity="0.98"/><stop offset="1" stop-color="#18102b"/></radialGradient></defs><title>aafterfx</title><rect width="200" height="200" style="fill:#816e89"/><polygon points="200 40 182.051 20 17.949 180 37.931 200 200 200 200 40" style="fill:url(#a)"/><path d="M24.786,26.838H175.214V173.162H24.786V26.838Z" style="fill:url(#b)"/><path d="M24.786,26.838H175.214V173.162H24.786V26.838ZM17.949,180h164.1V20H17.949V180Zm116.1-82.872a30.251,30.251,0,0,0,5.06-.137c0-.479.137-0.821,0.137-1.163,0-3.692-1.778-10.53-8.889-10.53-6.564,0-9.367,5.743-10.051,11.829h13.744Zm-13.88,9.367c0.137,9.231,4.513,15.453,14.906,15.453a26.761,26.761,0,0,0,11.145-2.119c0.479-.205.821-0.137,0.821,0.479v8.547a1.448,1.448,0,0,1-.684,1.368c-3.624,1.778-8.137,2.6-13.744,2.6-18.051,0-24.82-13.333-24.82-28.171,0-16.137,8.342-29.333,23.043-29.333,14.906,0,20.1,12.513,20.1,22.7a34.577,34.577,0,0,1-.547,7.248,1.017,1.017,0,0,1-.889.889,98.987,98.987,0,0,1-11.419.478H120.171V106.5h0ZM83.522,99.521c-1.915-7.59-6.564-24.137-8.274-32.137H75.111c-1.436,8-5.2,21.538-8,32.137H83.522ZM64.308,110.6l-5.4,20.444a0.847,0.847,0,0,1-1.026.752H47.829c-0.684,0-.821-0.205-0.684-1.025l19.419-67.9a20.959,20.959,0,0,0,.684-5.607,0.552,0.552,0,0,1,.547-0.684H82.154a0.714,0.714,0,0,1,.821.684l21.743,73.641c0.137,0.547,0,.889-0.547.889H92.889a0.926,0.926,0,0,1-1.026-.683L86.256,110.6H64.308Z" style="fill:#c3a3cd"/></svg>