<?xml version="1.0" encoding="iso-8859-1"?>
<!-- Generator: Adobe Illustrator 16.0.0, SVG Export Plug-In . SVG Version: 6.00 Build 0)  -->
<!DOCTYPE svg PUBLIC "-//W3C//DTD SVG 1.1//EN" "http://www.w3.org/Graphics/SVG/1.1/DTD/svg11.dtd">
<svg version="1.1" id="Layer_1" xmlns="http://www.w3.org/2000/svg" xmlns:xlink="http://www.w3.org/1999/xlink" x="0px" y="0px"
	 width="595.279px" height="580.398px" viewBox="0 130.746 595.279 580.398"
	 style="enable-background:new 0 130.746 595.279 580.398;" xml:space="preserve">
<radialGradient id="SVGID_1_" cx="-183.6897" cy="328.9722" r="0.76" gradientTransform="matrix(545.6736 0 0 528.3113 100439.3047 -173525.125)" gradientUnits="userSpaceOnUse">
	<stop  offset="0" style="stop-color:#442F55;stop-opacity:0.98"/>
	<stop  offset="1" style="stop-color:#12002C"/>
</radialGradient>
<path style="fill:url(#SVGID_1_);" d="M24.803,155.549h545.674v530.792H24.803V155.549z"/>
<g>
	<path style="fill:#D8A1FF;" d="M24.803,155.549h545.674v530.792H24.803V155.549z M0,711.145H595.28V130.746H0V711.145z
		 M421.16,410.528c12.649,0,17.114,0,18.354-0.496c0-1.736,0.496-2.977,0.496-4.217c0-13.394-6.449-38.197-32.244-38.197
		c-23.812,0-33.98,20.834-36.461,42.91H421.16z M370.81,444.508c0.496,33.485,16.37,56.056,54.071,56.056
		c14.634,0,27.283-1.983,40.43-7.688c1.736-0.744,2.977-0.496,2.977,1.736v31.004c0,2.48-0.744,3.721-2.48,4.961
		c-13.146,6.448-29.517,9.425-49.855,9.425c-65.48,0-90.036-48.366-90.036-102.189c0-58.536,30.261-106.406,83.588-106.406
		c54.071,0,72.922,45.39,72.922,82.347c0,11.906-0.744,21.579-1.984,26.292c-0.496,1.984-1.24,2.729-3.225,3.225
		c-4.961,0.744-19.595,1.735-41.422,1.735H370.81V444.508L370.81,444.508z M237.865,419.209
		c-6.945-27.532-23.812-87.556-30.013-116.576h-0.496c-5.208,29.02-18.851,78.13-29.02,116.576H237.865L237.865,419.209z
		 M168.166,459.391l-19.594,74.162c-0.496,1.983-1.24,2.728-3.721,2.728h-36.461c-2.48,0-2.977-0.744-2.48-3.72l70.441-246.298
		c1.24-4.464,1.984-7.937,2.48-20.338c0-1.736,0.744-2.48,1.984-2.48h52.087c1.736,0,2.48,0.496,2.977,2.48l78.874,267.132
		c0.496,1.983,0,3.224-1.984,3.224h-40.925c-1.984,0-3.225-0.744-3.721-2.479l-20.339-74.41H168.166z"/>
</g>
</svg>
