<svg xmlns="http://www.w3.org/2000/svg" xmlns:xlink="http://www.w3.org/1999/xlink" viewBox="0 0 200 200"><defs><linearGradient id="linear-gradient" x1="95.595" y1="85.901" x2="204.847" y2="195.153" gradientUnits="userSpaceOnUse"><stop offset="0" stop-color="#cc3434"/><stop offset="1" stop-color="#cc3434" stop-opacity="0"/></linearGradient></defs><title>angular</title><g id="angular"><rect width="200" height="200" style="fill:#f05455"/><polygon points="175.52 46.023 36.376 145.12 89.891 200 200 200 200 70.992 175.52 46.023" style="fill:url(#linear-gradient)"/><polygon points="99.759 20 24.48 46.492 36.376 145.12 99.839 180 163.629 144.647 175.52 46.023 99.759 20" style="fill:#dc2427"/><polygon points="175.52 46.023 99.759 20 99.914 180 163.629 144.647 175.52 46.023" style="fill:#a51e22"/><polygon points="32.927 52.144 43.121 140.35 99.582 171.666 99.582 28.386 32.927 52.144" style="fill:#dc2226"/><path d="M118.419,104.662L99.583,113.47H79.73L70.4,136.812l-17.358.321L99.583,33.591Zm-1.821-4.434L99.708,66.79,85.854,99.652H99.582Z" style="fill:#f3f3f3"/><polygon points="99.582 33.591 99.707 66.79 115.427 99.678 99.618 99.678 99.582 113.449 121.443 113.47 131.66 137.137 148.269 137.445 99.582 33.591" style="fill:#b4b4b4"/></g></svg>