<svg xmlns="http://www.w3.org/2000/svg" xmlns:xlink="http://www.w3.org/1999/xlink" viewBox="0 0 200.086 200.101"><defs><linearGradient id="a" x1="93.757" y1="93.785" x2="200.079" y2="200.108" gradientUnits="userSpaceOnUse"><stop offset="0" stop-color="#333"/><stop offset="1" stop-color="#231f20" stop-opacity="0"/></linearGradient></defs><title>bash</title><rect width="200" height="200" style="fill:#fff"/><polygon points="200 64.333 175.758 33.971 157.668 147.257 22.849 164.693 59.667 200.101 200.086 200.101 200 64.333" style="fill:url(#a)"/><path d="M168.571,31.429H31.429A11.428,11.428,0,0,0,20,42.857V157.143a11.428,11.428,0,0,0,11.429,11.429H168.571A11.428,11.428,0,0,0,180,157.143V42.857A11.428,11.428,0,0,0,168.571,31.429Zm-125.714,80L65.714,88.571,42.857,65.714,54.286,54.286,88.571,88.571,54.286,122.857Zm91.429,11.429H88.571V111.429h45.714v11.429Z" style="fill:#333"/></svg>