<svg xmlns="http://www.w3.org/2000/svg" xmlns:xlink="http://www.w3.org/1999/xlink" viewBox="0 0 200 200"><defs><linearGradient id="a" x1="102.005" y1="88.535" x2="206.735" y2="193.265" gradientUnits="userSpaceOnUse"><stop offset="0" stop-color="#256db4"/><stop offset="1" stop-color="#256db4" stop-opacity="0"/></linearGradient></defs><title>css</title><rect width="200" height="200" style="fill:#5690cc"/><polygon points="200 51.094 170.54 20 42.299 164.007 76.401 200 200 200 200 51.094" style="fill:url(#a)"/><polygon points="42.3 164.006 29.46 20 170.54 20 157.688 163.983 99.914 180 42.3 164.006" style="fill:#1673b6"/><polygon points="100.001 167.757 146.685 154.815 157.668 31.775 100.001 31.775 100.001 167.757" style="fill:#35a9db"/><polygon points="100 83.948 123.371 83.948 124.986 65.862 100 65.862 100 48.199 100.062 48.199 144.288 48.199 143.864 52.938 139.524 101.609 100 101.609 100 83.948" style="fill:#fff"/><polygon points="100.106 129.816 100.029 129.838 80.359 124.526 79.101 110.44 69.543 110.44 61.372 110.44 63.846 138.171 100.025 148.215 100.106 148.192 100.106 129.816" style="fill:#ebebeb"/><polygon points="121.87 100.861 119.744 124.514 100.045 129.831 100.045 148.206 136.252 138.171 136.518 135.188 139.591 100.861 121.87 100.861" style="fill:#fff"/><polygon points="100.062 48.199 100.062 59.169 100.062 65.818 100.062 65.862 57.456 65.862 57.456 65.862 57.4 65.862 57.046 61.892 56.241 52.938 55.819 48.199 100.062 48.199" style="fill:#ebebeb"/><polygon points="100 83.95 100 94.92 100 101.568 100 101.611 80.636 101.611 80.636 101.611 80.579 101.611 80.226 97.642 79.42 88.688 78.998 83.95 100 83.95" style="fill:#ebebeb"/></svg>