<svg xmlns="http://www.w3.org/2000/svg" xmlns:xlink="http://www.w3.org/1999/xlink" viewBox="0 0 200 200"><defs><linearGradient id="a" x2="200" y2="200" gradientUnits="userSpaceOnUse"><stop offset="0" stop-color="#fff"/><stop offset="1" stop-color="#b6b8ba"/></linearGradient><clipPath id="b"><path d="M15.6,20H29.229a80,80,0,0,1,0,160H15.6V144.835H29.229a44.835,44.835,0,1,0,0-89.67H15.6V20Zm63.738,0H135.6a48.791,48.791,0,0,1,37.505,80A48.791,48.791,0,0,1,135.6,180H79.341A94.4,94.4,0,0,0,112.3,144.835h23.3a13.626,13.626,0,0,0,0-27.253H121.976a94.4,94.4,0,0,0,0-35.165H135.6a13.626,13.626,0,0,0,0-27.253H112.3A94.4,94.4,0,0,0,79.341,20Z" style="fill:none"/></clipPath><linearGradient id="c" y1="100" x2="200" y2="100" gradientUnits="userSpaceOnUse"><stop offset="0" stop-color="#b94e52"/><stop offset="1" stop-color="#f68e4a"/></linearGradient></defs><title>d3</title><rect width="200" height="200" style="fill:url(#a)"/><g style="clip-path:url(#b)"><rect width="200" height="200" style="fill:url(#c)"/></g></svg>