<svg xmlns="http://www.w3.org/2000/svg" xmlns:xlink="http://www.w3.org/1999/xlink" viewBox="0 0 200 200"><defs><linearGradient id="a" x1="200" y1="100" x2="0" y2="100" gradientUnits="userSpaceOnUse"><stop offset="0" stop-color="#0079a6"/><stop offset="1" stop-color="#0091c6"/></linearGradient><linearGradient id="b" x1="90.39" y1="100.482" x2="194.954" y2="205.046" gradientUnits="userSpaceOnUse"><stop offset="0" stop-color="#156695"/><stop offset="1" stop-color="#208ccc" stop-opacity="0"/></linearGradient></defs><title>firebase</title><rect width="200" height="200" style="fill:url(#a)"/><polygon points="200 116.156 140.623 51.917 41.725 149.147 91.11 200 200 200 200 116.156" style="fill:url(#b)"/><path d="M41.725,149.147l0.969-1.356,45.82-86.941,0.1-.92-20.2-37.94A3.748,3.748,0,0,0,61.4,23.172Z" style="fill:#fec24c"/><path d="M42.3,148.112l0.733-1.429,45.34-86.03L68.221,22.559a3.4,3.4,0,0,0-6.476,1.177Z" style="fill:#faa71c"/><path d="M42.3,148.112l0.733-1.429,45.34-86.03L68.221,22.559a3.4,3.4,0,0,0-6.476,1.177Z" style="fill:#faa51a"/><path d="M103.335,88.627l15.039-15.4L103.33,44.506a3.875,3.875,0,0,0-6.828,0L88.465,59.834V61.14Z" style="fill:#f3bd63"/><path d="M103.066,87.985l14.621-14.974L103.066,45.17c-1.388-2.643-4.761-2.92-6.135-.269l-8.08,15.566-0.242.8Z" style="fill:#faa51a"/><path d="M103.066,87.985l14.621-14.974L103.066,45.17c-1.388-2.643-4.761-2.92-6.135-.269l-8.08,15.566-0.242.8Z" style="fill:#faa51a"/><polygon points="41.725 149.147 42.164 148.705 43.759 148.057 102.39 89.644 103.133 87.622 88.507 59.75 41.725 149.147" style="fill:#f58220"/><path d="M105.213,178.606l53.062-29.593L143.122,55.691a3.626,3.626,0,0,0-6.146-1.981L41.725,149.147,94.483,178.6a11.01,11.01,0,0,0,10.73,0" style="fill:#fce069"/><path d="M157.8,148.764L142.762,56.151c-0.47-2.9-3.449-4.1-5.523-2.019L42.313,148.965,94.492,178.13a10.926,10.926,0,0,0,10.649,0Z" style="fill:#fccb3f"/><path d="M105.213,177.734a11.01,11.01,0,0,1-10.73,0L42.15,148.7l-0.425.449L94.483,178.6a11.01,11.01,0,0,0,10.73,0l53.062-29.593-0.13-.8Z" style="fill:#eeac38"/></svg>