<svg xmlns="http://www.w3.org/2000/svg" xmlns:xlink="http://www.w3.org/1999/xlink" viewBox="0 0 200 200"><defs><linearGradient id="a" x1="81.891" y1="70.109" x2="205.891" y2="194.109" gradientUnits="userSpaceOnUse"><stop offset="0" stop-color="#be3b3c"/><stop offset="1" stop-color="#be3b3c" stop-opacity="0"/></linearGradient></defs><title>gulp</title><rect width="200" height="200" style="fill:#ea494b"/><path d="M125.336,134.362L121.1,141.6l-1.535,25.579c0,2.664-8.786,4.823-19.623,4.823-8.5,0-15.708-1.329-18.438-3.186L104.064,200H200V106.229L135.75,16.25h0L117.942,34.989,114.72,47.725c12.557,0.791,21.3,2.564,21.3,4.623" style="fill:url(#a)"/><path d="M119.562,167.177L121.1,141.6l4.239-7.236s-9.647,3.947-25.8,3.947-25.653-3.874-25.653-3.874l4.75,7.893,1.68,24.849c0,2.664,8.785,4.823,19.623,4.823s19.623-2.159,19.623-4.823" style="fill:#fff"/><path d="M114.72,47.725l3.222-12.736,17.843-18.775-4.7-4.006-18.891,20L108.45,47.424c-2.711-.092-5.54-0.141-8.45-0.141-19.9,0-36.024,2.267-36.024,5.064S80.1,57.411,100,57.411s36.024-2.267,36.024-5.064c0-2.059-8.747-3.832-21.3-4.623" style="fill:#fff"/><path d="M112.845,54.857a15.292,15.292,0,0,1-2.751.165c-2.053.008-3.511-.013-4.092-0.542a0.917,0.917,0,0,1-.241-0.615,0.788,0.788,0,0,1,.588-0.712l0.311,0.488a0.259,0.259,0,0,0-.213.161c0,0.276,2.1.465,3.706,0.445s3.549-.152,3.55-0.424a0.469,0.469,0,0,0-.4-0.221l0.309-.484a0.92,0.92,0,0,1,.779.811c0,0.735-.939.847-1.546,0.929" style="fill:#d24c48"/><path d="M118.7,104.7c-0.423-4.069,8.9-9.961,6.507-10.15-5.15.294-7.714,6.036-10.305,12.049-0.95,2.2-4.2,11.6-6.33,10.444s2.762-8.884,4.133-13.473c-1.582,1.16-7.385,5.669-8.881,1.447-2.4,2.042-7.542,3.148-6.962-2.216-1.279,2.266-4.15,5.429-7.6,4.115-4.525-1.726,2.622-16.141,4.4-15.414s-0.359,4.011-.918,5.286c-1.23,2.806-2.652,6.334-1.7,7.056,1.627,1.237,6.054-4.681,6.152-4.811,0.828-1.094,3.187-8.25,5.088-7.428s-4.742,10.27-2.258,12.145c0.5,0.378,2.551-.233,3.8-1.582,0.807-.873.529-2.805,3.218-9.219s5.086-14.4,6.93-13.791,0.324,4.707-.337,6.235c-3.1,7.172-8.473,19.02-5.942,18.123s3.85-.949,6.33-3.851,2.365-7.68,4.018-7.579,1.376,1.634.975,2.8c1.626-1.861,7.71-5.781,9.178-1.9,1.74,4.6-8.7,11.235-6.1,10.9,2.539-.33,6.652-2.935,8.408-5.3l4.834-43.455s-4.864,4.025-35.807,4.025-35.3-3.941-35.3-3.941l4.115,39.664c2.184-6.208,7.371-18.765,15.547-18.343,3.719,0.192,8.684,7.353,4.431,7.6-1.8.1-1.983-3.575-4.115-4.115-1.538-.39-3.68.861-5.064,2.216-2.76,2.7-8.7,13.359-7.912,18.673,1,6.774,9.348-2.354,10.761-5.064,0.995-1.909,1.667-7.565,3.843-6.972s-0.19,6.431-1.767,11.591c-1.772,5.8-2.7,11.908-4.924,11.2s1.4-8.184,1.266-9.495c-2.088,1.926-5.933,6.8-10.853,4.389l2.556,24.631s6.792,5.367,27.254,5.367,27.505-5.283,27.505-5.283l3.173-28.529c-2.6,2.528-10.814,7.018-11.34,1.957" style="fill:#fff"/></svg>