<svg xmlns="http://www.w3.org/2000/svg" xmlns:xlink="http://www.w3.org/1999/xlink" viewBox="0 0 200 200"><defs><linearGradient id="a" x1="102.005" y1="88.535" x2="206.735" y2="193.265" gradientUnits="userSpaceOnUse"><stop offset="0" stop-color="#c55523"/><stop offset="1" stop-color="#a14623" stop-opacity="0"/></linearGradient></defs><title>html</title><rect width="200" height="200" style="fill:#ef662c"/><polygon points="200 51.094 170.54 20 42.299 164.007 76.401 200 200 200 200 51.094" style="fill:url(#a)"/><polygon points="42.299 164.007 29.46 20 170.54 20 157.688 163.983 99.914 180 42.299 164.007" style="fill:#e45126"/><polygon points="100 167.758 146.684 154.815 157.668 31.774 100 31.774 100 167.758" style="fill:#f1682b"/><polygon points="100 85.185 76.629 85.185 75.014 67.099 100 67.099 100 49.436 99.939 49.436 55.712 49.436 56.135 54.175 60.476 102.846 100 102.846 100 85.185" style="fill:#ebebeb"/><polygon points="100 131.053 99.923 131.075 80.253 125.763 78.995 111.678 69.437 111.678 61.265 111.678 63.74 139.409 99.918 149.452 100 149.43 100 131.053" style="fill:#ebebeb"/><polygon points="99.939 85.185 99.939 102.846 121.687 102.846 119.637 125.752 99.939 131.068 99.939 149.444 136.147 139.409 136.412 136.425 140.563 89.927 140.993 85.185 136.234 85.185 99.939 85.185" style="fill:#fff"/><polygon points="99.939 49.436 99.939 60.406 99.939 67.055 99.939 67.099 142.544 67.099 142.544 67.099 142.601 67.099 142.955 63.129 143.759 54.175 144.182 49.436 99.939 49.436" style="fill:#fff"/></svg>