<svg xmlns="http://www.w3.org/2000/svg" xmlns:xlink="http://www.w3.org/1999/xlink" viewBox="0 0 200 200"><defs><linearGradient id="a" x1="98.97" y1="98.979" x2="199.995" y2="200.005" gradientUnits="userSpaceOnUse"><stop offset="0" stop-color="#1f110a" stop-opacity="0.5"/><stop offset="1" stop-color="#1f110a" stop-opacity="0"/></linearGradient><radialGradient id="b" cx="-182.93" cy="-127.563" r="0.21" gradientTransform="matrix(545.674, 0, 0, -528.311, 99894.631, -67333.558)" gradientUnits="userSpaceOnUse"><stop offset="0" stop-color="#433426" stop-opacity="0.98"/><stop offset="1" stop-color="#1f110a"/></radialGradient></defs><title>illustrator</title><rect width="200" height="200" style="fill:#e57125"/><polygon points="200 40 182.051 20 17.949 180 37.931 200 200 200 200 40" style="fill:url(#a)"/><path d="M24.786,26.838H175.214V173.162H24.786V26.838Z" style="fill:url(#b)"/><path d="M24.786,26.838H175.214V173.162H24.786V26.838ZM17.949,180h164.1V20H17.949V180ZM125.436,77.026a0.7,0.7,0,0,1,.821-0.821h10.735a0.7,0.7,0,0,1,.82.821v53.949a0.678,0.678,0,0,1-.82.82h-10.6a0.767,0.767,0,0,1-.889-0.889V77.026h-0.068ZM124.684,61.5a6.974,6.974,0,0,1,13.949,0c0,4.513-2.94,6.974-7.111,6.974C127.555,68.479,124.684,66.017,124.684,61.5ZM93.915,99.521C92,91.931,87.488,75.385,85.778,67.385H85.641c-1.436,8-5.06,21.538-7.931,32.137h16.2ZM74.906,110.6l-5.4,20.513a0.806,0.806,0,0,1-1.026.683H58.427c-0.684,0-.821-0.205-0.684-1.025L77.162,62.8a22.149,22.149,0,0,0,.684-5.675,0.552,0.552,0,0,1,.547-0.684H92.752a0.714,0.714,0,0,1,.821.684l21.743,73.778c0.137,0.547,0,.889-0.547.889H103.419a0.881,0.881,0,0,1-1.026-.615L96.786,110.6H74.906Z" style="fill:#f57f22"/></svg>