<svg xmlns="http://www.w3.org/2000/svg" xmlns:xlink="http://www.w3.org/1999/xlink" viewBox="0 0 200 200"><defs><linearGradient id="a" x2="200" y2="200" gradientUnits="userSpaceOnUse"><stop offset="0" stop-color="#eee"/><stop offset="1" stop-color="#abacae"/></linearGradient></defs><title>jasmine</title><rect width="200" height="200" style="fill:url(#a)"/><path d="M93.8,86.251H106.2l3.079-4.239v-33.2H90.727v33.2L93.8,86.251" style="fill:#8b4283"/><path d="M85.817,101.057l3.828-11.784-3.079-4.238L54.992,74.777,49.262,92.415l31.577,10.26,4.978-1.619" style="fill:#8b4283"/><path d="M97.43,113.23l-10.024-7.285-4.983,1.62L62.911,134.424l15,10.9L97.43,118.465V113.23" style="fill:#8b4283"/><path d="M112.6,105.945l-10.027,7.284,0,5.238,19.513,26.858,15.006-10.9-19.516-26.86-4.978-1.619" style="fill:#8b4283"/><path d="M110.353,89.27l3.83,11.785,4.982,1.617,31.574-10.258-5.732-17.639-31.575,10.26-3.079,4.234" style="fill:#8b4283"/><path d="M100,20A80,80,0,1,0,180,99.987,80.084,80.084,0,0,0,100,20h0Zm0,16.2A63.8,63.8,0,1,1,36.2,99.987,63.793,63.793,0,0,1,100,36.2" style="fill:#8b4283"/><path d="M148.456,117.766l-24-7.8,1.587-4.889,24,7.8-1.587,4.889" style="fill:#8b4283"/><path d="M117.845,79.234l-4.159-3.021L128.518,55.8l4.159,3.021L117.845,79.234" style="fill:#8b4283"/><path d="M82.413,79.049L67.582,58.631l4.159-3.021L86.572,76.027l-4.159,3.022" style="fill:#8b4283"/><path d="M51.447,117.461l-1.588-4.889,24-7.8,1.588,4.889-24,7.8" style="fill:#8b4283"/><path d="M97.272,150.988h5.14V125.751h-5.14v25.237Z" style="fill:#8b4283"/></svg>