<svg xmlns="http://www.w3.org/2000/svg" xmlns:xlink="http://www.w3.org/1999/xlink" viewBox="0 0 200 200"><defs><linearGradient id="a" x2="200" y2="200" gradientUnits="userSpaceOnUse"><stop offset="0" stop-color="#076aae"/><stop offset="1" stop-color="#0c4875"/></linearGradient></defs><title>jquery</title><rect width="200" height="200" style="fill:url(#a)"/><path d="M44.024,40.88c-0.1-.056-0.2-0.113-0.3-0.167-4.2,5.791-8.442,11.547-12.58,17.38a58.233,58.233,0,0,0-11,33.295,75.545,75.545,0,0,0,4.37,26.347c9.27,26.684,28.257,44.181,53.453,55.385,15.56,6.919,31.981,8.459,48.749,5.341,14.173-2.636,26.331-9.044,35.516-20.3,5.224-6.406,9.9-13.264,14.809-19.923a0.347,0.347,0,0,0,.082-0.3c-3.509,2.858-6.912,6.1-10.756,8.679-14.3,9.6-30.365,11.852-47.111,10.464a81.066,81.066,0,0,1-28.9-8.092,101.217,101.217,0,0,1-36.1-28.643,83.223,83.223,0,0,1-17.023-40.02c-1.6-11.05-.761-21.831,3.471-32.237,1-2.446,2.209-4.806,3.319-7.206h0ZM179.01,95.806c-0.476.443-.924,0.914-1.426,1.323a69.687,69.687,0,0,1-6.39,5.123c-11.278,7.192-23.7,8.431-36.593,6.508a58.46,58.46,0,0,1-22.161-8.38c-15.65-9.666-26.583-22.843-30.487-41.2-1.851-8.708-1.687-17.292,1.636-25.664,0.707-1.781,1.522-3.517,2.287-5.273-4.338,5.514-8.486,11.117-12.3,16.939A37.164,37.164,0,0,0,67.68,64.749a51.505,51.505,0,0,0,7.8,29.706c14.307,22.385,34.388,34.561,61.637,32.767a42.5,42.5,0,0,0,23.892-8.965c7.75-6.064,12.232-14.75,18-22.451h0Zm0.849-31.733-0.243-.178c-1.412,1.061-2.759,2.236-4.254,3.169a31.667,31.667,0,0,1-23.527,3.987c-13.862-2.733-24.379-10.442-30.683-23.186-4.264-8.621-5.35-17.658-1.22-26.8a4.278,4.278,0,0,0,.01-1.069c-2.648,3.745-5.066,7.049-7.342,10.446a20.55,20.55,0,0,0-2.258,4.48c-3.547,9.994-1.754,19.5,3.631,28.2,7.509,12.136,18.55,19.276,32.875,20.6,8.081,0.745,15.881-.83,22.159-6.344,3.134-2.751,5.528-6.353,8.206-9.614,0.959-1.165,1.769-2.453,2.646-3.688h0Z" style="fill:#6aceef"/></svg>