<svg xmlns="http://www.w3.org/2000/svg" viewBox="0 0 200 200"><title>js</title><rect width="200" height="200" style="fill:#fee86e"/><polygon points="200 40 180 20 20 180 40 200 200 200 200 40" style="fill:#ccba57"/><rect x="20" y="20" width="160" height="160" style="fill:#f0db4f"/><path d="M166.9,141.84c-1.171-7.3-5.932-13.43-20.03-19.148-4.9-2.251-10.357-3.863-11.985-7.574a8.261,8.261,0,0,1-.289-4.684c1.049-4.243,6.114-5.567,10.129-4.35a11.145,11.145,0,0,1,6.51,6.038c6.9-4.471,6.89-4.441,11.711-7.513a29.842,29.842,0,0,0-3.863-5.171c-4.152-4.639-9.81-7.027-18.859-6.844-1.567.2-3.148,0.41-4.715,0.608-4.517,1.141-8.821,3.513-11.346,6.692-7.574,8.593-5.414,23.635,3.8,29.825,9.08,6.814,22.418,8.365,24.122,14.738,1.658,7.8-5.734,10.327-13.08,9.43-5.414-1.125-8.426-3.878-11.681-8.882-5.992,3.468-5.992,3.468-12.152,7.011,1.46,3.194,3,4.639,5.445,7.407,11.589,11.757,40.593,11.179,45.795-6.616A21.97,21.97,0,0,0,166.9,141.84Zm-59.924-48.3H92.015c0,12.928-.061,25.764-0.061,38.692,0,8.228.426,15.772-.913,18.084-2.19,4.547-7.863,3.985-10.449,3.1-2.631-1.293-3.97-3.133-5.521-5.734a7.7,7.7,0,0,0-.852-1.369q-6.091,3.719-12.167,7.452a24.049,24.049,0,0,0,8.821,10.1c5.7,3.422,13.369,4.471,21.384,2.631,5.217-1.521,9.718-4.669,12.076-9.46,3.407-6.281,2.677-13.886,2.646-22.3C107.057,121.019,106.981,107.3,106.981,93.536Z" style="fill:#333431"/></svg>