<?xml version="1.0" encoding="iso-8859-1"?>
<!-- Generator: Adobe Illustrator 16.0.0, SVG Export Plug-In . SVG Version: 6.00 Build 0)  -->
<!DOCTYPE svg PUBLIC "-//W3C//DTD SVG 1.1//EN" "http://www.w3.org/Graphics/SVG/1.1/DTD/svg11.dtd">
<svg version="1.1" id="Layer_1" xmlns="http://www.w3.org/2000/svg" xmlns:xlink="http://www.w3.org/1999/xlink" x="0px" y="0px"
	 width="1052px" height="1052px" viewBox="0 0 1052 1052" style="enable-background:new 0 0 1052 1052;" xml:space="preserve">
<rect x="0" y="0" style="fill:#F0DB4F;" width="1052" height="1052"/>
<path style="fill:#323330;" d="M965.9,801.1c-7.7-48-39-88.3-131.7-125.9c-32.2-14.8-68.1-25.399-78.8-49.8
	c-3.8-14.2-4.3-22.2-1.9-30.8C760.4,566.7,793.7,558,820.1,566c17,5.7,33.1,18.801,42.8,39.7c45.4-29.399,45.3-29.2,77-49.399
	c-11.6-18-17.8-26.301-25.4-34c-27.3-30.5-64.5-46.2-124-45c-10.3,1.3-20.699,2.699-31,4c-29.699,7.5-58,23.1-74.6,44
	c-49.8,56.5-35.6,155.399,25,196.1c59.7,44.8,147.4,55,158.6,96.9c10.9,51.3-37.699,67.899-86,62c-35.6-7.4-55.399-25.5-76.8-58.4
	c-39.399,22.8-39.399,22.8-79.899,46.1c9.6,21,19.699,30.5,35.8,48.7c76.2,77.3,266.899,73.5,301.1-43.5
	C964.1,869.2,973.301,842.4,965.9,801.1z M571.9,483.5h-98.4c0,85-0.399,169.4-0.399,254.4c0,54.1,2.8,103.7-6,118.9
	c-14.4,29.899-51.7,26.2-68.7,20.399c-17.3-8.5-26.1-20.6-36.3-37.699c-2.8-4.9-4.9-8.7-5.601-9c-26.699,16.3-53.3,32.699-80,49
	c13.301,27.3,32.9,51,58,66.399c37.5,22.5,87.9,29.4,140.601,17.3c34.3-10,63.899-30.699,79.399-62.199
	C576.9,859.7,572.1,809.7,571.9,754.4C572.4,664.2,571.9,574,571.9,483.5z"/>
</svg>
