<svg xmlns="http://www.w3.org/2000/svg" xmlns:xlink="http://www.w3.org/1999/xlink" viewBox="0 0 200 200"><defs><linearGradient id="a" x2="200" y2="200" gradientUnits="userSpaceOnUse"><stop offset="0" stop-color="#765843"/><stop offset="1" stop-color="#3f2e2a"/></linearGradient><linearGradient id="b" x1="98.558" y1="110" x2="200" y2="110" gradientUnits="userSpaceOnUse"><stop offset="0" stop-color="#3f2e2a"/><stop offset="1" stop-color="#3f2e2a" stop-opacity="0"/></linearGradient></defs><title>mongo</title><rect width="200" height="200" style="fill:url(#a)"/><polygon points="200 112.437 99.175 20 98.558 178.545 120.939 200 200 200 200 112.437" style="fill:url(#b)"/><path d="M103.642,180l-4.26-1.455s0.52-21.714-7.272-23.272c-5.195-6.026.831-255.584,19.532-.831,0,0-6.441,3.22-7.584,8.727-1.247,5.4-.416,16.831-0.416,16.831h0Z" style="fill:#a5a284"/><path d="M105.928,159.013s37.3-24.52,28.571-75.533c-8.415-37.09-28.26-49.246-30.441-53.922a52.418,52.418,0,0,1-4.676-9.142l1.559,103.168c0,0.1-3.221,31.585,4.987,35.429" style="fill:#499d49"/><path d="M97.2,160.363s-35.013-23.9-32.935-65.974c1.973-42.078,26.7-62.753,31.48-66.494,3.117-3.324,3.221-4.572,3.429-7.9,2.181,4.676,1.766,69.922,2.077,77.61,0.935,29.61-1.662,57.143-4.052,62.753h0Z" style="fill:#58aa50"/></svg>