<?xml version="1.0" encoding="UTF-8" standalone="no"?>
<!-- Created with Inkscape (http://www.inkscape.org/) -->
<svg
   xmlns:dc="http://purl.org/dc/elements/1.1/"
   xmlns:cc="http://web.resource.org/cc/"
   xmlns:rdf="http://www.w3.org/1999/02/22-rdf-syntax-ns#"
   xmlns:svg="http://www.w3.org/2000/svg"
   xmlns="http://www.w3.org/2000/svg"
   xmlns:sodipodi="http://sodipodi.sourceforge.net/DTD/sodipodi-0.dtd"
   xmlns:inkscape="http://www.inkscape.org/namespaces/inkscape"
   width="765.40393"
   height="185.70081"
   id="svg14588"
   sodipodi:version="0.32"
   inkscape:version="0.44"
   version="1.0"
   sodipodi:docbase="C:\Dokumente und Einstellungen\Andreas\Desktop\Logos"
   sodipodi:docname="Nintendo.svg">
  <defs
     id="defs14590" />
  <sodipodi:namedview
     id="base"
     pagecolor="#ffffff"
     bordercolor="#666666"
     borderopacity="1.0"
     inkscape:pageopacity="0.0"
     inkscape:pageshadow="2"
     inkscape:zoom="0.8189415"
     inkscape:cx="384.17034"
     inkscape:cy="122.39677"
     inkscape:document-units="px"
     inkscape:current-layer="layer1"
     inkscape:window-width="925"
     inkscape:window-height="574"
     inkscape:window-x="294"
     inkscape:window-y="76" />
  <metadata
     id="metadata14593">
    <rdf:RDF>
      <cc:Work
         rdf:about="">
        <dc:format>image/svg+xml</dc:format>
        <dc:type
           rdf:resource="http://purl.org/dc/dcmitype/StillImage" />
      </cc:Work>
    </rdf:RDF>
  </metadata>
  <g
     inkscape:label="Ebene 1"
     inkscape:groupmode="layer"
     id="layer1"
     transform="translate(371.4775,-319.2759)">
    <path
       style="fill:white;fill-rule:nonzero;stroke:none;fill-opacity:1"
       d="M -278.73113,319.48387 C -329.86757,319.48387 -371.47755,361.09376 -371.47755,412.2412 C -371.47755,437.01006 -361.84154,460.30065 -344.32154,477.82065 C -326.80164,495.34069 -303.47816,504.98757 -278.73113,504.97666 C -222.9957,504.97666 301.17999,504.77952 301.17999,504.77952 C 325.92707,504.77952 349.2505,495.12163 366.77045,477.60163 C 384.29044,460.0926 393.92641,436.79104 393.92641,412.02219 C 393.92641,360.87483 352.31643,319.27586 301.17999,319.27586 C 301.17999,319.27586 -278.73113,319.48387 -278.73113,319.48387"
       class="ps02"
       id="path1891"
       sodipodi:nodetypes="csscccscc" />
    <path
       style="fill:#fe0016;fill-rule:nonzero;stroke:none;fill-opacity:1"
       d="M 301.17999,339.65378 C 341.03804,339.65378 373.5594,372.1314 373.5594,412.02219 C 373.5594,431.34892 366.00394,449.51495 352.31643,463.18054 C 338.73852,476.84609 320.56148,484.37972 301.17999,484.37972 C 301.17999,484.37972 -278.73113,484.59874 -278.73113,484.59874 C -298.00306,484.59874 -316.1801,477.06515 -329.86757,463.38855 C -343.55503,449.73397 -351.00108,431.55697 -351.00108,412.2412 C -351.00108,392.90351 -343.55503,374.72656 -329.86757,361.07188 C -316.1801,347.40629 -298.00306,339.88371 -278.73113,339.8727 C -278.73113,339.8727 301.17999,339.65378 301.17999,339.65378 z M -278.73113,319.48387 C -329.86757,319.48387 -371.47755,361.09376 -371.47755,412.2412 C -371.47755,437.01006 -361.84154,460.30065 -344.32154,477.82065 C -326.80164,495.34069 -303.47816,504.98757 -278.73113,504.97666 C -222.9957,504.97666 301.17999,504.77952 301.17999,504.77952 C 325.92707,504.77952 349.2505,495.12163 366.77045,477.60163 C 384.29044,460.0926 393.92641,436.79104 393.92641,412.02219 C 393.92641,360.87483 352.31643,319.27586 301.17999,319.27586 C 301.17999,319.27586 -278.73113,319.48387 -278.73113,319.48387"
       class="ps02"
       id="path6973" />
    <path
       style="fill:#fe0016;fill-rule:nonzero;stroke:none;fill-opacity:1"
       d="M -204.49023,367.36815 L -204.49023,455.05567 L -232.41274,455.05567 L -268.10969,395.65197 C -270.08064,391.75377 -270.08064,395.57534 -270.08064,395.57534 L -270.08064,455.05567 L -298.66015,455.05567 L -298.66015,367.36815 L -270.08064,367.36815 C -270.08064,367.36815 -236.02617,423.53065 -234.16468,426.1696 C -232.41274,428.80856 -232.41274,426.1696 -232.41274,426.1696 L -232.41274,367.36815 L -204.49023,367.36815"
       class="ps02"
       id="path6991" />
    <path
       style="fill:#fe0016;fill-rule:nonzero;stroke:none;stroke-width:0.78369999;stroke-linecap:butt;stroke-linejoin:miter;stroke-miterlimit:4;stroke-dasharray:none;fill-opacity:1"
       d="M -190.25527,383.34417 L -164.08483,383.34417 L -164.08483,367.36815 L -190.25527,367.36815 L -190.25527,383.34417 z "
       class="ps02 ps10"
       id="path6995" />
    <path
       style="fill:#fe0016;fill-rule:nonzero;stroke:none;stroke-width:0.78369999;stroke-linecap:butt;stroke-linejoin:miter;stroke-miterlimit:4;stroke-dasharray:none;fill-opacity:1"
       d="M -25.020029,380.28911 L -25.020029,389.79369 L -13.303513,389.79369 L -12.865576,395.57534 L -25.020029,395.57534 L -25.020029,455.05567 L -52.285452,455.05567 L -52.285452,395.57534 L -64.549413,395.57534 L -64.220936,389.79369 L -52.285452,389.79369 L -52.285452,380.28911 L -25.020029,380.28911"
       class="ps02 ps10"
       id="path6999" />
    <path
       style="fill:#fe0016;fill-rule:nonzero;stroke:none;stroke-width:0.78369999;stroke-linecap:butt;stroke-linejoin:miter;stroke-miterlimit:4;stroke-dasharray:none;fill-opacity:1"
       d="M -76.813466,398.49898 C -70.243432,403.73305 -67.944006,413.83988 -67.944006,413.83988 L -67.944006,455.05567 L -95.428445,455.05567 L -95.428445,414.52976 C -95.428445,414.52976 -97.508948,404.95941 -108.2399,405.02517 C -118.86143,405.09084 -120.94189,413.83988 -120.94189,413.83988 L -120.94189,455.05567 L -147.76937,455.05567 L -147.76937,395.57534 L -120.94189,395.57534 C -118.20443,400.67803 -111.7439,394.55694 -106.15939,393.60435 C -95.975936,390.34127 -84.916419,393.60435 -76.813466,398.49898"
       class="ps02 ps10"
       id="path7003" />
    <path
       style="fill:#fe0016;fill-rule:nonzero;stroke:none;stroke-width:0.78369999;stroke-linecap:butt;stroke-linejoin:miter;stroke-miterlimit:4;stroke-dasharray:none;fill-opacity:1"
       d="M -190.25527,455.05567 L -164.08483,455.05567 L -164.08483,395.57534 L -190.25527,395.57534 L -190.25527,455.05567 z "
       class="ps02 ps10"
       id="path7007" />
    <path
       style="fill:#fe0016;fill-rule:nonzero;stroke:none;stroke-width:0.78369999;stroke-linecap:butt;stroke-linejoin:miter;stroke-miterlimit:4;stroke-dasharray:none;fill-opacity:1"
       d="M 38.161354,445.20064 C 38.161354,445.20064 35.752421,453.3584 27.101884,453.3584 C 18.45144,453.3584 16.480444,444.18233 16.480444,444.18233 L 16.80892,426.15859 L 66.63136,426.15859 C 66.521853,409.51461 59.513836,403.05418 53.819909,398.96985 C 37.066419,389.79369 13.304911,389.93608 -3.0105491,402.97755 C -8.7045688,407.87218 -12.756069,416.85115 -12.317992,425.41396 C -12.317992,433.16661 -9.1425525,440.90825 -3.7770553,446.21895 C 6.844478,455.18705 22.721954,459.26042 38.270908,456.00827 C 48.454365,452.74515 61.484925,447.85051 64.331842,436.42968 L 38.270908,436.42968 L 38.161354,445.20064 z M 17.356457,407.52174 C 17.356457,407.52174 19.108438,399.64872 27.977898,399.64872 C 36.73785,399.64872 37.832925,408.28825 37.832925,408.28825 L 38.05194,416.30371 L 17.356457,416.30371 L 17.356457,407.52174"
       class="ps02 ps10"
       id="path7011" />
    <path
       style="fill:#fe0016;fill-rule:nonzero;stroke:none;stroke-width:0.78369999;stroke-linecap:butt;stroke-linejoin:miter;stroke-miterlimit:4;stroke-dasharray:none;fill-opacity:1"
       d="M 215.55119,367.35723 L 215.55119,397.86386 C 206.57218,392.96922 191.57072,389.92507 182.15367,396.04616 C 170.3277,401.75109 166.2762,415.21964 165.83821,427.04561 C 166.2762,436.01362 171.53223,446.20808 179.30666,451.51878 C 189.05218,457.47561 202.08265,458.32966 213.03261,453.77446 C 214.01818,453.33648 215.11311,452.86566 215.98913,452.32908 C 216.86519,453.00795 217.96012,453.54453 219.16471,453.9716 C 226.93914,456.66531 240.73611,455.05567 240.73611,455.05567 L 240.73611,367.35723 L 215.55119,367.35723 z M 215.55119,444.43414 C 215.55119,444.43414 212.81369,450.2267 205.03917,450.29242 C 198.90721,450.2267 194.7462,445.87952 194.7462,445.87952 L 194.7462,406.78812 C 194.7462,406.78812 196.49814,401.28023 204.38217,401.3569 C 212.2662,401.41166 215.55119,406.78812 215.55119,406.78812 L 215.55119,444.43414"
       class="ps02 ps10"
       id="path7015" />
    <path
       style="fill:#fe0016;fill-rule:nonzero;stroke:none;stroke-width:0.78369999;stroke-linecap:butt;stroke-linejoin:miter;stroke-miterlimit:4;stroke-dasharray:none;fill-opacity:1"
       d="M 148.75629,398.72891 C 155.21672,403.96298 157.62575,414.06981 157.62575,414.06981 L 157.62575,455.2856 L 130.03176,455.2856 L 130.03176,414.75969 C 130.03176,414.75969 127.9513,405.18944 117.32977,405.2551 C 106.59882,405.33173 104.62782,414.06981 104.62782,414.06981 L 104.62782,455.2856 L 77.690831,455.2856 L 77.690831,395.80527 L 104.62782,395.80527 C 107.25582,400.90791 113.71635,394.78696 119.30081,393.84528 C 129.48431,390.5712 140.54378,393.84528 148.75629,398.72891"
       class="ps02 ps10"
       id="path7019" />
    <path
       style="fill:#fe0016;fill-rule:nonzero;stroke:none;stroke-width:0.78369999;stroke-linecap:butt;stroke-linejoin:miter;stroke-miterlimit:4;stroke-dasharray:none;fill-opacity:1"
       d="M 292.09156,391.84141 C 269.97262,391.84141 252.12415,406.37201 252.12415,424.29715 C 252.12415,442.21125 269.97262,456.74198 292.09156,456.74198 C 314.10104,456.73098 331.94952,442.21125 331.94952,424.29715 C 331.94952,406.37201 314.10104,391.84141 292.09156,391.84141 z M 302.82251,443.61288 C 302.82251,443.61288 300.08506,449.40544 292.20112,449.47116 C 286.17853,449.40544 282.01752,445.05826 282.01752,445.05826 L 282.01752,405.96686 C 282.01752,405.96686 283.66009,400.45897 291.54403,400.53564 C 299.42806,400.60136 302.82251,405.96686 302.82251,405.96686 L 302.82251,443.61288"
       class="ps02 ps10"
       id="path7023" />
    <path
       style="fill:#fe0016;fill-rule:nonzero;stroke:none;stroke-width:0.78369999;stroke-linecap:butt;stroke-linejoin:miter;stroke-miterlimit:4;stroke-dasharray:none;fill-opacity:1"
       d="M 333.15401,400.05387 C 336.98644,400.05387 340.59996,398.54277 343.33746,395.82715 C 346.07497,393.10065 347.60798,389.48713 347.60798,385.64369 C 347.60798,381.80024 346.07497,378.18673 343.33746,375.46023 C 340.59996,372.7446 336.98644,371.23347 333.15401,371.23347 C 325.16056,371.23347 318.70003,377.69399 318.70003,385.64369 C 318.70003,389.48713 320.23305,393.10065 322.97055,395.82715 C 325.70801,398.54277 329.32152,400.05387 333.15401,400.05387 z M 321.54704,385.64369 C 321.54704,382.55574 322.75149,379.65407 324.9415,377.47498 C 327.13151,375.29593 330.08798,374.09148 333.15401,374.09148 C 336.22003,374.09148 339.17646,375.29593 341.36647,377.47498 C 343.44697,379.65407 344.65146,382.55574 344.65146,385.64369 C 344.65146,392.01658 339.50502,397.1959 333.15401,397.1959 C 330.08798,397.1959 327.13151,395.99141 324.9415,393.8124 C 322.75149,391.63335 321.54704,388.73159 321.54704,385.64369"
       class="ps02 ps10"
       id="path7027" />
    <path
       style="fill:#fe0016;fill-rule:nonzero;stroke:none;stroke-width:0.78369999;stroke-linecap:butt;stroke-linejoin:miter;stroke-miterlimit:4;stroke-dasharray:none;fill-opacity:1"
       d="M 330.08798,379.76349 L 335.01545,379.76349 C 335.67245,379.76349 336.22003,379.86213 336.65801,380.04826 C 337.31501,380.43149 337.75295,381.14325 337.75295,382.18343 C 337.75295,383.14708 337.42452,383.82599 336.87703,384.19831 C 336.32945,384.55962 335.67245,384.75676 334.68702,384.75676 L 330.08798,384.75676 L 330.08798,379.76349 z M 330.08798,392.68454 L 330.08798,386.4102 L 334.68702,386.4102 C 335.45353,386.4102 336.11052,386.48682 336.43895,386.673 C 337.09595,387.00143 337.42452,387.64752 337.53403,388.60021 L 337.64354,391.03106 C 337.64354,391.61139 337.64354,391.99471 337.75295,392.19176 C 337.75295,392.3889 337.75295,392.55316 337.86246,392.68454 L 340.27153,392.68454 L 340.27153,392.3451 C 339.94296,392.21363 339.83345,391.91803 339.72395,391.45808 C 339.61453,391.18441 339.50502,390.76825 339.50502,390.20985 L 339.39547,388.24976 C 339.39547,387.40663 339.28596,386.78251 338.95753,386.4102 C 338.73852,386.02687 338.30053,385.72032 337.64354,385.49039 C 338.30053,385.15095 338.84803,384.70201 339.17646,384.15452 C 339.61453,383.58506 339.72395,382.86239 339.72395,381.99739 C 339.72395,380.31107 339.06695,379.16129 337.64354,378.53712 C 336.98644,378.2086 336.00102,378.0553 334.90594,378.0553 L 328.11699,378.0553 L 328.11699,392.68454 L 330.08798,392.68454"
       class="ps02 ps10"
       id="path7029" />
  </g>
</svg>
