<svg xmlns="http://www.w3.org/2000/svg" xmlns:xlink="http://www.w3.org/1999/xlink" viewBox="0 0 200 200"><defs><linearGradient id="a" x1="74.796" y1="67.764" x2="203.516" y2="196.484" gradientUnits="userSpaceOnUse"><stop offset="0" stop-color="#212630"/><stop offset="1" stop-color="#212630" stop-opacity="0"/></linearGradient></defs><title>npm</title><rect width="200" height="200" style="fill:#2a303c"/><polygon points="200 83.378 180 68.8 20 122.56 126.244 200 200 200 200 83.378" style="fill:url(#a)"/><polygon points="175 117.314 95.714 117.314 95.36 126.241 70.228 126.658 69.919 117.314 24.02 117.314 24.02 74.904 175 74.904 175 117.314" style="fill:#fff"/><path d="M20,68.8H180v53.76H100v8.64H64.48v-8.64H20V68.8Zm9.057,44.638H46.732V86.579h8.886v26.859h8.806V77.918H29.057v35.52ZM73.227,77.76l0.107,44.8h17.6v-8.938h17.817V77.76H73.227ZM90.72,86.4H100v18.24H90.72V86.4Zm26.987-8.64v35.52h17.706V86.613h8.853V113.28h8.844V86.72h8.863v26.56h8.856V77.76H117.707Z" style="fill:#cd3732"/></svg>