<svg xmlns="http://www.w3.org/2000/svg" xmlns:xlink="http://www.w3.org/1999/xlink" viewBox="0 0 200 200"><defs><linearGradient id="a" x1="98.97" y1="98.979" x2="199.995" y2="200.005" gradientUnits="userSpaceOnUse"><stop offset="0" stop-color="#171923" stop-opacity="0.5"/><stop offset="1" stop-color="#1f110a" stop-opacity="0"/></linearGradient><radialGradient id="b" cx="-182.93" cy="-127.563" r="0.21" gradientTransform="matrix(545.674, 0, 0, -528.311, 99894.631, -67333.558)" gradientUnits="userSpaceOnUse"><stop offset="0" stop-color="#35374e" stop-opacity="0.98"/><stop offset="1" stop-color="#131124"/></radialGradient></defs><title>photoshop</title><rect width="200" height="200" style="fill:#2f9ac6"/><polygon points="200 40 182.051 20 17.949 180 37.931 200 200 200 200 40" style="fill:url(#a)"/><path d="M24.786,26.838H175.214V173.162H24.786V26.838Z" style="fill:url(#b)"/><path d="M24.786,26.838H175.214V173.162H24.786V26.838ZM17.949,180h164.1V20H17.949V180ZM128.581,85.641c-5.4,0-7.248,2.735-7.248,4.991,0,2.461,1.231,4.171,8.479,7.932,10.735,5.2,14.085,10.188,14.085,17.5,0,10.94-8.342,16.82-19.624,16.82-5.949,0-11.077-1.231-14.017-2.94a0.965,0.965,0,0,1-.547-1.094V118.8c0-.684.342-0.889,0.821-0.547a25.379,25.379,0,0,0,13.743,4.034c5.4,0,7.658-2.256,7.658-5.333,0-2.461-1.573-4.649-8.479-8.205-9.709-4.649-13.743-9.367-13.743-17.231,0-8.821,6.906-16.137,18.872-16.137,5.88,0,9.983.889,12.239,1.915a1.514,1.514,0,0,1,.684,1.367v9.367a0.69,0.69,0,0,1-1.026.684,23.1,23.1,0,0,0-11.9-3.077h0Zm-58.8,8.137c1.573,0.137,2.8.137,5.539,0.137,8,0,15.521-2.8,15.521-13.675,0-8.684-5.4-13.06-14.5-13.06-2.735,0-5.333.137-6.564,0.205V93.778h0ZM57.607,57.47c0-.479.957-0.821,1.5-0.821,4.376-.205,10.872-0.342,17.641-0.342,18.94,0,26.325,10.393,26.325,23.658,0,17.367-12.581,24.82-28.034,24.82-2.6,0-3.487-.137-5.333-0.137v26.256a0.7,0.7,0,0,1-.82.82H58.427a0.7,0.7,0,0,1-.821-0.82V57.47h0Z" style="fill:#37c5ef"/></svg>