<?xml version="1.0" encoding="iso-8859-1"?>
<!-- Generator: Adobe Illustrator 16.0.0, SVG Export Plug-In . SVG Version: 6.00 Build 0)  -->
<!DOCTYPE svg PUBLIC "-//W3C//DTD SVG 1.1//EN" "http://www.w3.org/Graphics/SVG/1.1/DTD/svg11.dtd">
<svg version="1.1" id="Layer_1" xmlns="http://www.w3.org/2000/svg" xmlns:xlink="http://www.w3.org/1999/xlink" x="0px" y="0px"
	 width="595.279px" height="580.398px" viewBox="0 130.746 595.279 580.398"
	 style="enable-background:new 0 130.746 595.279 580.398;" xml:space="preserve">
<radialGradient id="SVGID_1_" cx="-183.6897" cy="328.9722" r="0.76" gradientTransform="matrix(545.6736 0 0 528.3113 100439.3047 -173525.125)" gradientUnits="userSpaceOnUse">
	<stop  offset="0" style="stop-color:#4B2D4F;stop-opacity:0.98"/>
	<stop  offset="1" style="stop-color:#180024"/>
</radialGradient>
<path style="fill:url(#SVGID_1_);" d="M24.803,155.549h545.674v530.792H24.803V155.549z"/>
<path style="fill:#E579FF;" d="M24.803,155.549h545.674v530.792H24.803V155.549z M0,711.145H595.28V130.746H0V711.145z
	 M357.168,375.803c0-2.977,0-10.169-1.24-24.06c0-1.984,0.248-2.48,1.984-3.224c15.13-6.201,50.599-17.114,90.78-17.114
	c1.984,0,2.976,0.496,2.976,2.48v35.965c0,1.984-0.744,2.48-2.728,2.48c-15.627-0.744-38.197,1.24-46.879,4.96v156.262
	c0,1.983-0.744,2.976-2.977,2.976h-38.94c-1.984,0-2.977-0.744-2.977-2.976V375.803z M198.427,398.374
	c5.704,0.496,10.169,0.496,20.091,0.496c29.02,0,56.304-10.169,56.304-49.606c0-31.5-19.347-47.375-52.584-47.375
	c-9.921,0-19.346,0.496-23.811,0.744V398.374L198.427,398.374z M154.525,266.668c0-1.736,0.496-2.977,2.48-2.977
	c15.874-0.744,39.189-1.24,63.745-1.24c68.705,0,98.717,37.701,98.717,86.068c0,63-45.638,90.036-101.693,90.036
	c-9.426,0-12.65-0.496-19.347-0.496v95.245c0,1.984-0.744,2.976-2.977,2.976h-38.197c-1.984,0-2.977-0.744-2.977-2.976V266.668
	H154.525z"/>
</svg>
