<svg xmlns="http://www.w3.org/2000/svg" xmlns:xlink="http://www.w3.org/1999/xlink" viewBox="0 0 200 200"><defs><linearGradient id="a" x1="98.97" y1="98.979" x2="199.995" y2="200.005" gradientUnits="userSpaceOnUse"><stop offset="0" stop-color="#171923" stop-opacity="0.5"/><stop offset="1" stop-color="#1f110a" stop-opacity="0"/></linearGradient><radialGradient id="b" cx="-182.93" cy="-127.563" r="0.21" gradientTransform="matrix(545.674, 0, 0, -528.311, 99894.631, -67333.558)" gradientUnits="userSpaceOnUse"><stop offset="0" stop-color="#4c2e50" stop-opacity="0.98"/><stop offset="1" stop-color="#1b1024"/></radialGradient></defs><title>premiere</title><rect width="200" height="200" style="fill:#7f5b7f"/><polygon points="200 40 182.051 20 17.949 180 37.931 200 200 200 200 40" style="fill:url(#a)"/><path d="M24.786,26.838H175.214V173.162H24.786V26.838Z" style="fill:url(#b)"/><path d="M24.786,26.838H175.214V173.162H24.786V26.838ZM17.949,180h164.1V20H17.949V180ZM116.41,87.555c0-.821,0-2.8-0.342-6.633a0.728,0.728,0,0,1,.547-0.889,71,71,0,0,1,25.026-4.718c0.547,0,.82.137,0.82,0.684v9.915c0,0.547-.205.684-0.752,0.684-4.308-.205-10.53.342-12.923,1.367v43.077a0.7,0.7,0,0,1-.821.82H117.231a0.7,0.7,0,0,1-.821-0.82V87.555h0ZM72.65,93.778c1.572,0.137,2.8.137,5.539,0.137,8,0,15.521-2.8,15.521-13.675,0-8.684-5.333-13.06-14.5-13.06-2.735,0-5.333.137-6.564,0.205V93.778h0ZM60.547,57.47a0.66,0.66,0,0,1,.684-0.821c4.376-.205,10.8-0.342,17.573-0.342,18.94,0,27.214,10.393,27.214,23.727,0,17.367-12.581,24.82-28.034,24.82-2.6,0-3.487-.137-5.333-0.137v26.256a0.7,0.7,0,0,1-.821.82H61.3a0.7,0.7,0,0,1-.821-0.82V57.47h0.069Z" style="fill:#bb83b9"/></svg>