<svg xmlns="http://www.w3.org/2000/svg" xmlns:xlink="http://www.w3.org/1999/xlink" viewBox="0 0 200 200"><defs><linearGradient id="a" x2="200" y2="200" gradientUnits="userSpaceOnUse"><stop offset="0" stop-color="#2d2d2d"/><stop offset="1" stop-color="#222"/></linearGradient></defs><title>react</title><rect width="200" height="200" style="fill:url(#a)"/><path d="M145.783,77.764q-2.211-.761-4.574-1.441,0.388-1.582.707-3.12c3.463-16.808,1.2-30.348-6.532-34.806-7.413-4.275-19.536.182-31.779,10.838q-1.766,1.537-3.538,3.246-1.179-1.128-2.354-2.174C84.88,38.913,72.018,34.112,64.295,38.583,56.889,42.87,54.7,55.6,57.813,71.528q0.451,2.308,1.051,4.707c-1.82.517-3.578,1.068-5.259,1.654C38.56,83.134,28.953,91.354,28.953,99.88c0,8.806,10.314,17.639,25.983,22.995q1.855,0.634,3.842,1.2-0.644,2.592-1.116,5.072C54.69,144.8,57.011,157.229,64.4,161.49c7.629,4.4,20.433-.123,32.9-11.021q1.478-1.292,2.965-2.733,1.926,1.855,3.841,3.5c12.076,10.392,24,14.588,31.383,10.316,7.621-4.412,10.1-17.763,6.883-34.007q-0.368-1.861-.852-3.8,1.349-.4,2.643-0.826c16.29-5.4,26.888-14.122,26.888-23.046C171.047,91.323,161.13,83.048,145.783,77.764Zm-38.194-23.95c10.49-9.129,20.3-12.734,24.762-10.158,4.758,2.744,6.609,13.81,3.619,28.322q-0.286,1.389-.639,2.825a145.414,145.414,0,0,0-19-3,142.6,142.6,0,0,0-12.012-14.991Q105.959,55.236,107.589,53.815ZM74.127,100.027c1.835-3.821,3.856-7.66,6.044-11.455h0c2.194-3.805,4.5-7.475,6.89-10.969,4.226-.319,8.559-0.486,12.939-0.486h0c4.4,0,8.738.168,12.963,0.49,2.35,3.468,4.643,7.126,6.846,10.932,2.228,3.849,4.275,7.661,6.126,11.4-1.845,3.8-3.887,7.655-6.106,11.5s-4.5,7.528-6.817,11c-4.217.3-8.573,0.457-13.013,0.457-4.422,0-8.723-.137-12.865-0.406-2.408-3.516-4.738-7.2-6.945-11.016h0C77.989,107.674,75.963,103.839,74.127,100.027Zm-3.219,7.138q1.908,3.685,4.028,7.352h0q2.159,3.73,4.461,7.3a129.194,129.194,0,0,1-13.1-2.105C67.558,115.657,69.1,111.447,70.908,107.164ZM70.9,92.888c-1.768-4.192-3.28-8.315-4.515-12.3,4.054-.907,8.377-1.649,12.882-2.211q-2.238,3.491-4.356,7.158h0Q72.806,89.193,70.9,92.888Zm54.186,21.587q2.171-3.765,4.121-7.529a128.762,128.762,0,0,1,4.771,12.5,129,129,0,0,1-13.255,2.259Q122.938,118.2,125.087,114.475Zm4.064-21.583q-1.933-3.671-4.088-7.394-2.109-3.643-4.321-7.106c4.534,0.573,8.878,1.334,12.957,2.265A129.672,129.672,0,0,1,129.151,92.892Zm-29.083-31.74a129.745,129.745,0,0,1,8.362,10.095q-4.169-.2-8.43-0.2-4.215,0-8.365.2C94.4,67.6,97.224,64.221,100.068,61.153ZM67.336,43.837C72.09,41.085,82.6,45.009,93.681,54.847q1.062,0.943,2.132,1.968a145.421,145.421,0,0,0-12.1,14.98,148.358,148.358,0,0,0-18.961,2.947q-0.555-2.231-.977-4.378C61.1,56.716,62.873,46.421,67.336,43.837ZM60.407,118.23q-1.813-.521-3.507-1.1c-6.929-2.368-12.651-5.446-16.573-8.8-3.524-3.018-5.3-6.015-5.3-8.446,0-5.174,7.714-11.774,20.58-16.259,1.561-.544,3.2-1.057,4.891-1.539a145.5,145.5,0,0,0,6.925,17.946A147.884,147.884,0,0,0,60.407,118.23ZM93.3,145.9c-5.513,4.819-11.038,8.238-15.907,9.958-4.375,1.545-7.86,1.589-9.966.375-4.482-2.585-6.345-12.564-3.8-25.95q0.437-2.3,1.037-4.717a142.764,142.764,0,0,0,19.149,2.772,147.779,147.779,0,0,0,12.2,15.07Q94.65,144.718,93.3,145.9Zm6.933-6.861c-2.877-3.1-5.747-6.538-8.549-10.231q4.081,0.16,8.314.161,4.344,0,8.578-.191A129.113,129.113,0,0,1,100.236,139.038Zm36.861,8.446c-0.846,4.562-2.548,7.6-4.653,8.821-4.478,2.592-14.054-.777-24.382-9.665q-1.776-1.528-3.573-3.258A142.6,142.6,0,0,0,116.4,128.259a141.688,141.688,0,0,0,19.244-2.967q0.435,1.754.769,3.437C137.836,135.913,138.039,142.407,137.1,147.483Zm5.153-30.318q-1.165.386-2.387,0.747a142.38,142.38,0,0,0-7.2-18,142.352,142.352,0,0,0,6.916-17.738q2.18,0.631,4.224,1.332c13.149,4.527,21.17,11.219,21.17,16.376C164.977,105.374,156.315,112.5,142.25,117.165Z" style="fill:#17c1e3"/><path d="M100,87.311A12.689,12.689,0,1,1,87.311,100,12.689,12.689,0,0,1,100,87.311" style="fill:#17c1e3"/></svg>