<svg xmlns:rdf="http://www.w3.org/1999/02/22-rdf-syntax-ns#" xmlns="http://www.w3.org/2000/svg" xml:space="preserve" height="300" viewBox="0 0 300 300" width="300" version="1.1" xmlns:cc="http://creativecommons.org/ns#" xmlns:dc="http://purl.org/dc/elements/1.1/"><metadata><rdf:RDF><cc:Work rdf:about=""><dc:format>image/svg+xml</dc:format><dc:type rdf:resource="http://purl.org/dc/dcmitype/StillImage"/><dc:title/></cc:Work></rdf:RDF></metadata><g transform="matrix(1.25 0 0 -1.25 0 300)"><path d="m120.1 240.2c66.3 0 120.1-53.8 120.1-120.1 0-66.34-53.8-120.1-120.1-120.1-66.34 0-120.1 53.76-120.1 120.1 0 66.3 53.76 120.1 120.1 120.1" fill-rule="evenodd" fill="#cc499c"/><path d="m96.22 80.08c1.74-6.46 1.55-12.49-.25-17.95-.20-.60-.42-1.2-.66-1.79-.24-.60-.50-1.18-.78-1.76-1.39-2.89-3.26-5.59-5.55-8.08-6.97-7.61-16.72-10.49-20.9-8.07-4.514 2.616-2.253 13.35 5.836 21.9 8.702 9.2 21.22 15.11 21.22 15.11l-.0193.0374c.3606.1941.7271.3940 1.098.5985zm99.18 108.7c-5.438 21.33-40.8 28.34-74.27 16.45-19.9-7.1-41.44-18.2-56.95-32.7-18.43-17.2-21.37-32.2-20.16-38.5 4.27-22.1 34.59-36.58 47.05-47.31v-.06488c-3.67-1.81-30.57-15.43-36.86-29.34-6.64-14.68 1.05-25.22 6.15-26.64 15.79-4.394 32 3.509 40.71 16.5 8.405 12.54 7.705 28.73 4.052 36.78 5.039 1.329 10.91 1.925 18.38 1.053 21.06-2.46 25.2-15.61 24.41-21.12-.7897-5.505-5.208-8.532-6.685-9.445-1.478-.9142-1.928-1.23-1.804-1.91.1789-.9877.8628-.9509 2.122-.7375 1.734.2923 11.06 4.477 11.46 14.64.5079 12.9-11.85 27.33-33.74 26.95-9.015-.1555-14.68-1.013-18.78-2.537-.3028.3449-.6108.6880-.9294 1.028-13.53 14.44-38.55 24.65-37.49 44.06.3858 7.056 2.838 25.64 48.07 48.18 37.05 18.46 66.71 13.38 71.84 2.122 7.322-16.09-15.85-45.99-54.33-50.3-14.66-1.644-22.38 4.038-24.3 6.154-2.022 2.228-2.323 2.328-3.077 1.91-1.23-.6810-.4507-2.648 0-3.82 1.149-2.99 5.863-8.292 13.9-10.93 7.07-2.321 24.28-3.595 45.1 4.456 23.31 9.018 41.52 34.1 36.17 55.07" fill="#fff"/></g></svg>
