<?xml version="1.0" encoding="iso-8859-1"?>
<!-- Generator: Adobe Illustrator 16.0.0, SVG Export Plug-In . SVG Version: 6.00 Build 0)  -->
<!DOCTYPE svg PUBLIC "-//W3C//DTD SVG 1.1//EN" "http://www.w3.org/Graphics/SVG/1.1/DTD/svg11.dtd">
<svg version="1.1" id="Layer_1" xmlns="http://www.w3.org/2000/svg" xmlns:xlink="http://www.w3.org/1999/xlink" x="0px" y="0px"
	 width="192.756px" height="192.756px" viewBox="0 0 192.756 192.756" style="enable-background:new 0 0 192.756 192.756;"
	 xml:space="preserve">
<g>
	<polygon style="fill-rule:evenodd;clip-rule:evenodd;fill:#FFFFFF;" points="0,0 192.756,0 192.756,192.756 0,192.756 0,0 	"/>
	<path style="fill-rule:evenodd;clip-rule:evenodd;fill:#65AA72;" d="M175.811,74.506c6.93,0.252,13.984,7.56,14.111,15.623v27.338
		c0,7.433-6.551,14.488-11.34,14.488l-162.519,0.252c-6.803-0.252-12.599-5.417-12.851-16L2.834,90.128
		c0.126-9.071,6.929-15.497,12.599-15.497l36.661-0.378c15.748,1.26,12.347-24.818,44.725-25.07
		c22.677-0.126,31.244,24.819,41.828,24.819L175.811,74.506L175.811,74.506z"/>
	<path style="fill-rule:evenodd;clip-rule:evenodd;fill:#F8E146;" d="M173.291,76.773c7.938-0.125,14.111,6.551,13.984,14.362
		l0.127,25.197c0,7.685-5.922,13.606-13.859,13.48l-154.205,0.378c-7.811,0.126-13.858-6.3-13.858-13.984V91.01
		c0-7.811,6.3-13.732,13.984-13.732l33.89-0.126c14.992,1.134,14.362-24.819,42.079-24.819c26.206-0.126,31.118,24.567,41.198,24.44
		H173.291L173.291,76.773z"/>
	<path style="fill-rule:evenodd;clip-rule:evenodd;fill:#65AA72;" d="M20.472,82.821l152.694-0.378c5.291,0,9.574,4.284,9.574,9.575
		v23.181c0.125,5.291-4.158,9.575-9.449,9.448l-152.692,0.379c-5.292,0.125-9.575-4.158-9.701-9.449V92.396
		C10.897,87.104,15.181,82.821,20.472,82.821L20.472,82.821z"/>
	<path style="fill-rule:evenodd;clip-rule:evenodd;fill:#65AA72;" d="M67.212,76.773c9.197-2.52,10.961-18.645,28.347-18.771
		c17.386,0,21.417,16.378,29.859,18.646L67.212,76.773L67.212,76.773z"/>
	<path style="fill-rule:evenodd;clip-rule:evenodd;fill:#FFFFFF;" d="M29.039,108.899c0.126-7.811-7.055-7.433-7.055-12.22
		c-0.126-1.638,0.63-2.646,1.764-2.646c1.512,0,1.638,1.89,1.638,3.78h3.527c0.252-5.166-1.512-7.56-5.04-7.434
		c-4.284-0.126-5.543,3.024-5.543,7.056c0,7.433,7.181,7.685,7.307,12.095c-0.126,1.764-0.756,2.897-1.89,2.897
		c-2.016,0-2.016-2.017-2.016-4.409h-3.528c-0.252,4.283,0.63,8.188,5.04,8.062C25.89,116.207,29.166,115.325,29.039,108.899
		L29.039,108.899z"/>
	<polygon style="fill-rule:evenodd;clip-rule:evenodd;fill:#FFFFFF;" points="40.756,115.703 40.756,111.923 34.96,111.923 
		34.96,104.49 40.252,104.49 40.252,100.711 34.96,100.711 34.834,94.664 40.63,94.538 40.63,90.632 31.433,90.758 31.433,115.703 
		40.756,115.703 	"/>
	<path style="fill-rule:evenodd;clip-rule:evenodd;fill:#FFFFFF;" d="M53.354,108.773c0-7.811-7.181-7.307-7.181-12.094
		c0-1.764,0.756-2.646,1.89-2.646c1.386,0,1.638,1.89,1.638,3.78h3.528c0.125-5.292-1.512-7.56-5.04-7.56
		c-4.283,0-5.543,3.15-5.669,7.182c0.126,7.307,7.307,7.559,7.307,12.095c0,1.638-0.63,2.771-1.764,2.897
		c-2.016-0.126-2.016-2.017-2.142-4.409h-3.527c-0.126,4.283,0.63,8.062,5.039,8.062C50.205,116.081,53.354,115.325,53.354,108.773
		L53.354,108.773z"/>
	<path style="fill-rule:evenodd;clip-rule:evenodd;fill:#FFFFFF;" d="M57.638,115.577l1.008-5.418h4.787l0.882,5.418h3.779
		l-4.661-24.945h-4.662l-4.661,24.945H57.638L57.638,115.577L57.638,115.577z M62.677,106.254h-3.402l1.512-10.708h0.252
		L62.677,106.254L62.677,106.254z"/>
	<polygon style="fill-rule:evenodd;clip-rule:evenodd;fill:#FFFFFF;" points="73.386,115.577 73.386,96.301 76.536,115.577 
		79.937,115.577 83.212,96.301 83.212,115.577 86.74,115.577 86.614,90.632 81.197,90.632 78.299,107.64 75.654,90.632 
		69.858,90.632 69.984,115.577 73.386,115.577 	"/>
	<polygon style="fill-rule:evenodd;clip-rule:evenodd;fill:#FFFFFF;" points="98.33,115.577 98.33,111.798 92.284,111.798 
		92.284,104.364 97.574,104.364 97.574,100.585 92.284,100.585 92.284,94.412 97.953,94.412 97.953,90.506 88.756,90.632 
		88.882,115.577 98.33,115.577 	"/>
	<path style="fill-rule:evenodd;clip-rule:evenodd;fill:#FFFFFF;" d="M116.221,108.647c0-7.811-7.182-7.307-7.182-12.095
		c0-1.763,0.756-2.645,1.891-2.645c1.385,0,1.637,1.89,1.637,3.78h3.527c0.127-5.292-1.512-7.559-5.039-7.559
		c-4.283,0-5.543,3.149-5.543,7.054c0,7.434,7.182,7.686,7.055,12.222c0.127,1.638-0.504,2.771-1.637,2.897
		c-2.016-0.127-2.016-2.143-2.143-4.536l-3.4,0.126c-0.252,4.283,0.504,8.063,5.039,8.063
		C113.07,115.955,116.221,115.199,116.221,108.647L116.221,108.647L116.221,108.647z"/>
	<polygon style="fill-rule:evenodd;clip-rule:evenodd;fill:#FFFFFF;" points="116.85,90.506 116.85,94.664 120.756,94.664 
		120.756,115.451 124.41,115.451 124.41,94.664 128.314,94.664 128.314,90.506 116.85,90.506 	"/>
	<path style="fill-rule:evenodd;clip-rule:evenodd;fill:#FFFFFF;" d="M133.48,94.412h1.512c1.133-0.126,1.764,0.882,1.764,3.15
		c0,1.638-0.377,3.779-1.764,3.779h-1.512V94.412L133.48,94.412L133.48,94.412z M133.48,105.12h0.756
		c2.898,0,2.646,2.52,2.771,5.543c-0.125,1.639-0.125,3.276,0.252,4.788h3.527c-0.377-1.008-0.377-5.669-0.377-7.308
		c0-4.535-2.395-4.787-3.15-5.039c2.268-0.504,3.15-2.897,3.15-6.047c0-4.284-1.512-6.551-4.031-6.551h-6.426l-0.127,24.945h3.654
		V105.12L133.48,105.12z"/>
	<polygon style="fill-rule:evenodd;clip-rule:evenodd;fill:#FFFFFF;" points="152.127,115.451 152.127,111.672 146.33,111.672 
		146.33,104.238 151.623,104.238 151.623,100.459 146.33,100.459 146.205,94.412 152,94.286 152,90.38 142.803,90.506 
		142.803,115.451 152.127,115.451 	"/>
	<polygon style="fill-rule:evenodd;clip-rule:evenodd;fill:#FFFFFF;" points="163.213,115.325 163.213,111.672 157.291,111.672 
		157.291,104.238 162.582,104.238 162.582,100.459 157.291,100.459 157.166,94.286 162.961,94.286 162.961,90.38 153.764,90.38 
		153.764,115.451 163.213,115.325 	"/>
	<polygon style="fill-rule:evenodd;clip-rule:evenodd;fill:#FFFFFF;" points="164.346,90.38 164.346,94.538 168.252,94.538 
		168.379,115.325 171.779,115.325 171.779,94.538 175.811,94.538 175.811,90.38 164.346,90.38 	"/>
	<path style="fill-rule:evenodd;clip-rule:evenodd;fill:#FFFFFF;" d="M97.701,62.916c0.377,0.63,0,1.764,0.125,2.52
		c0.127,0-1.889,0-1.763,0v7.811c-0.504,0.126-1.89,0-2.646,0c-0.252-2.016-0.126-7.685,0-7.685c-0.126,0-1.512,0.125-2.394,0.378
		c0-1.134-0.125-2.268-0.125-2.268C93.292,62.412,96.693,62.79,97.701,62.916L97.701,62.916z"/>
	<path style="fill-rule:evenodd;clip-rule:evenodd;fill:#FFFFFF;" d="M101.605,66.947c0.252-0.504,0.504-2.142,0.756-2.898
		c0.883,0.504,2.773,1.134,2.773,1.134s0.377,2.016,0.881,2.898l0.756-2.268c1.008,0.503,1.764,1.386,1.764,1.386
		s-0.756,2.52-1.512,6.047l-2.016-0.126c0,0-1.385-3.779-1.512-3.905c-0.377,0.882-1.26,2.771-1.512,4.031h-2.143l-1.26-10.331
		c1.135,0.126,2.52,0.882,2.52,0.882S101.355,65.813,101.605,66.947L101.605,66.947z"/>
	<path style="fill-rule:evenodd;clip-rule:evenodd;fill:#FFFFFF;" d="M89.512,66.569c0,0.504-3.905,0-4.662,2.646
		c-0.378,0.882,0.504,1.512,1.008,1.89c1.512,0,2.771-0.252,3.779-0.756c0.126-0.126,0.252,1.26,0.252,2.016
		c-1.89,1.26-4.913,2.016-6.677,0c-1.008-1.26-1.008-2.646-0.63-4.283c0.756-2.771,3.906-3.528,6.551-3.78L89.512,66.569
		L89.512,66.569z"/>
	<path style="fill-rule:evenodd;clip-rule:evenodd;fill:#FFFFFF;" d="M175.811,111.546h1.135c0.629,0,1.008,0.252,1.008,0.756
		c0,0.378-0.252,0.63-0.631,0.756l1.008,1.26l-0.504,0.126l-0.881-1.26h-0.631v1.26h-0.504V111.546L175.811,111.546L175.811,111.546
		z M176.314,112.932h0.379c0.629,0,0.756-0.378,0.756-0.63c0-0.379-0.252-0.504-0.631-0.504h-0.504V112.932L176.314,112.932
		L176.314,112.932z M174.299,113.058c0-1.386,1.135-2.646,2.52-2.646c1.512,0,2.646,1.261,2.646,2.646
		c0,1.512-1.135,2.646-2.646,2.646C175.434,115.703,174.299,114.569,174.299,113.058L174.299,113.058L174.299,113.058z
		 M178.961,113.058c0-1.135-0.883-2.142-2.143-2.142c-1.133,0-2.141,1.007-2.141,2.142c0,1.26,1.008,2.268,2.141,2.268
		C178.078,115.325,178.961,114.191,178.961,113.058L178.961,113.058z"/>
</g>
</svg>
