<svg xmlns="http://www.w3.org/2000/svg" xmlns:xlink="http://www.w3.org/1999/xlink" viewBox="0 0 200 200"><defs><linearGradient id="a" x1="75.231" y1="76.269" x2="199.481" y2="200.519" gradientUnits="userSpaceOnUse"><stop offset="0" stop-color="#232323"/><stop offset="1" stop-color="#232323" stop-opacity="0"/></linearGradient></defs><title>skills</title><rect width="200" height="200" style="fill:#333"/><polygon points="170.54 59.395 167.338 100 141.258 76.469 132 76.141 122.144 70.667 107.067 71.333 100.5 74.904 89.499 82.305 80.633 70.868 77 81 76.333 117.314 74.36 139.476 65.349 151.737 51.333 152.294 30.367 141.771 86.779 200 200 200 200 90.095 170.54 59.395" style="fill:url(#a)"/><path d="M93.449,21.707a13.417,13.417,0,0,1,13.1,0q29.912,16.9,59.828,33.793A12.317,12.317,0,0,1,172.6,66.108V133.9a12.45,12.45,0,0,1-6.685,10.838Q136.1,161.548,106.3,178.371A13.037,13.037,0,0,1,93.053,178q-8.939-5.182-17.888-10.342a10.541,10.541,0,0,1-3.451-2.484c0.76-1.025,2.119-1.153,3.224-1.6A41.773,41.773,0,0,0,82,160.283a1.646,1.646,0,0,1,1.837.11c5.1,2.921,10.146,5.928,15.259,8.822,1.091,0.63,2.2-.206,3.127-0.726q29.257-16.535,58.535-33.033a1.936,1.936,0,0,0,1.063-1.906q0.021-33.546.007-67.095a2.1,2.1,0,0,0-1.249-2.092Q130.864,47.632,101.166,30.88a2.063,2.063,0,0,0-2.333,0q-29.706,16.742-59.4,33.5a2.073,2.073,0,0,0-1.256,2.082q0.005,33.546,0,67.1a1.9,1.9,0,0,0,1.077,1.882q7.927,4.5,15.865,8.959c2.98,1.6,6.637,2.556,9.919,1.328a7.525,7.525,0,0,0,4.872-7.07c0.028-22.233-.014-44.47.021-66.7a1.674,1.674,0,0,1,1.824-1.71c2.539-.017,5.082-0.034,7.621.007a1.759,1.759,0,0,1,1.658,2.033c-0.01,22.374.028,44.748-.017,67.122,0.007,5.963-2.443,12.451-7.958,15.369-6.8,3.52-15.194,2.773-21.906-.6-5.811-2.9-11.357-6.324-17.065-9.431A12.424,12.424,0,0,1,27.4,133.9V66.108a12.339,12.339,0,0,1,6.434-10.742Q63.647,38.542,93.449,21.707h0Z" style="fill:#8ec74e"/><path d="M110.786,68.668c8.667-.557,17.946-0.33,25.746,3.939,6.038,3.272,9.386,10.139,9.493,16.849a1.823,1.823,0,0,1-1.978,1.342c-2.515,0-5.03.034-7.545-.017a1.944,1.944,0,0,1-1.82-1.885c-0.723-3.21-2.474-6.389-5.495-7.937-4.638-2.322-10.016-2.205-15.073-2.157-3.692.2-7.662,0.516-10.79,2.687a6.837,6.837,0,0,0-2.274,7.638c0.809,1.92,3.024,2.539,4.837,3.11,10.446,2.732,21.514,2.46,31.76,6.055,4.242,1.466,8.392,4.314,9.844,8.756,1.9,5.952,1.067,13.067-3.169,17.846-3.434,3.933-8.436,6.073-13.425,7.236a64.512,64.512,0,0,1-20.265.86c-6.338-.723-12.933-2.388-17.826-6.706a18.708,18.708,0,0,1-6.024-14.757,1.69,1.69,0,0,1,1.851-1.49c2.532-.021,5.065-0.028,7.6,0a1.774,1.774,0,0,1,1.813,1.755c0.468,3.059,1.617,6.269,4.284,8.082,5.147,3.32,11.605,3.093,17.5,3.186,4.882-.217,10.363-0.282,14.347-3.509a7.926,7.926,0,0,0,2.157-7.569c-0.616-2.236-2.955-3.279-4.965-3.96-10.311-3.262-21.5-2.078-31.715-5.766-4.146-1.466-8.154-4.235-9.747-8.495-2.223-6.028-1.2-13.484,3.475-18.1,4.562-4.593,11.148-6.362,17.409-6.995h0Z" style="fill:#8ec74e"/></svg>