<svg xmlns="http://www.w3.org/2000/svg" xmlns:xlink="http://www.w3.org/1999/xlink" viewBox="0 0 200 200"><defs><linearGradient id="linear-gradient" x1="101.855" y1="101.888" x2="199.983" y2="200.017" gradientUnits="userSpaceOnUse"><stop offset="0" stop-color="#2f2f2f"/><stop offset="1" stop-color="#797979" stop-opacity="0"/></linearGradient><linearGradient id="linear-gradient-2" x1="765.411" y1="45.598" x2="766.767" y2="-108.978" gradientTransform="matrix(1, 0, 0, -1, -666.095, 67.65)" gradientUnits="userSpaceOnUse"><stop offset="0" stop-color="#535353"/><stop offset="1" stop-color="#3e3e3e"/></linearGradient></defs><title>sublime</title><g id="sublime"><rect width="200" height="200" style="fill:#848484"/><polygon points="31.709 172.035 61.265 200 200 200 200 61.998 172.388 32.129 31.709 172.035" style="fill:url(#linear-gradient)"/><rect id="rect3830" x="20" y="20" width="160" height="160" rx="33.333" ry="33.333" style="fill:url(#linear-gradient-2)"/><path id="path18416" d="M102.182,49.153c-20.46,0-34.9,12.937-34.9,29.184a26.17,26.17,0,0,0,6.9,18.157c0.6,0.68,1.113,1.136,1.674,1.727,0,0,31.942,32.112,32.267,32.267a21.638,21.638,0,0,1-7.892,1.261c-8.124,0-17.147-4.216-24.216-10.233L63.369,136.706,106.663,180h40A33.266,33.266,0,0,0,180,146.663V108.316L133.888,62.2c-0.137-.137-0.274-0.268-0.413-0.4s-0.252-.248-0.381-0.371c-0.04-.038-0.076-0.079-0.117-0.117-0.228-.216-0.466-0.425-0.7-0.636-0.043-.038-0.084-0.079-0.127-0.117A45.592,45.592,0,0,0,102.182,49.153Z" style="fill:#010101;fill-opacity:0.3137255012989044"/><path id="path15" d="M76.007,121.514c7.069,6.017,16.1,10.23,24.22,10.23,9.177,0,13.689-3.612,13.689-9.477,0-6.168-5.565-8.124-14.141-11.734l-12.788-5.416c-10.08-4.062-19.708-12.486-19.708-26.779,0-16.247,14.443-29.185,34.9-29.185A45.414,45.414,0,0,1,133.774,62.09L122.49,76.081c-6.469-4.964-12.487-7.823-20.309-7.823-7.672,0-12.487,3.31-12.487,8.876,0,6.017,6.469,8.124,14.9,11.584l12.637,5.115c11.884,4.814,19.405,12.788,19.405,26.627,0,16.248-13.54,30.388-37.008,30.388a53.7,53.7,0,0,1-36.254-14.141l12.638-15.193h0Z" style="fill:#f58120"/></g></svg>