<svg xmlns="http://www.w3.org/2000/svg" xmlns:xlink="http://www.w3.org/1999/xlink" viewBox="0 0 200 200"><defs><linearGradient id="a" x2="200" y2="200" gradientUnits="userSpaceOnUse"><stop offset="0" stop-color="#fbb03d"/><stop offset="1" stop-color="#f05336"/></linearGradient><linearGradient id="b" x1="81.293" y1="104.258" x2="188.517" y2="211.483" gradientUnits="userSpaceOnUse"><stop offset="0" stop-color="#333"/><stop offset="1" stop-color="#231f20" stop-opacity="0"/></linearGradient></defs><title>svg</title><rect width="200" height="200" style="fill:url(#a)"/><polygon points="200 105.438 173.75 78.75 92.015 93.536 25.176 166.106 59.581 200 200 200 200 105.438" style="fill:url(#b)"/><path d="M52.425,85.644a12.674,12.674,0,1,0,0,17.924h95.15a12.674,12.674,0,1,0,0-17.924H52.425Z" style="fill:#fbb03d;stroke:#333;stroke-width:21.48896018523631px"/><path d="M72.7,54.628A12.674,12.674,0,1,0,60.022,67.3L127.3,134.583a12.674,12.674,0,1,0,12.674-12.674Z" style="fill:#fbb03d;stroke:#333;stroke-width:21.48896018523631px"/><path d="M108.962,47.03a12.674,12.674,0,1,0-17.924,0v95.15a12.674,12.674,0,1,0,17.924,0V47.03Z" style="fill:#fbb03d;stroke:#333;stroke-width:21.48896018523631px"/><path d="M139.978,67.3A12.674,12.674,0,1,0,127.3,54.628L60.022,121.909A12.674,12.674,0,1,0,72.7,134.583Z" style="fill:#fbb03d;stroke:#333;stroke-width:21.48896018523631px"/><path d="M52.425,85.644a12.674,12.674,0,1,0,0,17.924h95.15a12.674,12.674,0,1,0,0-17.924H52.425Z" style="fill:#fbb03d"/><path d="M72.7,54.628A12.674,12.674,0,1,0,60.022,67.3L127.3,134.583a12.674,12.674,0,1,0,12.674-12.674Z" style="fill:#fbb03d"/><path d="M108.962,47.03a12.674,12.674,0,1,0-17.924,0v95.15a12.674,12.674,0,1,0,17.924,0V47.03Z" style="fill:#fbb03d"/><path d="M139.978,67.3A12.674,12.674,0,1,0,127.3,54.628L60.022,121.909A12.674,12.674,0,1,0,72.7,134.583Z" style="fill:#fbb03d"/><path d="M20,94.606H180v56.537a23.055,23.055,0,0,1-23.463,23.463H43.463A23.055,23.055,0,0,1,20,151.143V94.606Z" style="fill:#333"/><path d="M44.008,134.542A20.731,20.731,0,1,1,79.4,119.887H67.256a8.589,8.589,0,1,0-14.668,6.064h0.006c1.555,1.56,2.849,2.012,6.07,2.523h0c5.728,0.6,10.909,2.323,14.661,6.074h0A20.733,20.733,0,1,1,37.932,149.2H50.078a8.589,8.589,0,1,0,14.667-6.064H64.739c-1.555-1.555-3.786-2.091-6.075-2.517v-0.006c-5.552-.851-10.9-2.323-14.656-6.075h0Z" style="fill:#fff"/><path d="M120.864,99.156L106.2,169.941H94.055L79.4,99.156H91.544l8.594,41.456,8.582-41.456h12.144Z" style="fill:#fff"/><path d="M141.6,128.474h20.731V149.2h0.006a20.734,20.734,0,1,1-41.468,0h0V119.888h-0.006a20.734,20.734,0,0,1,41.468,0H150.188a8.586,8.586,0,1,0-17.173,0V149.2h0a8.586,8.586,0,0,0,17.173.006v-8.586H141.6V128.474h0Z" style="fill:#fff"/></svg>