<svg xmlns="http://www.w3.org/2000/svg" xmlns:xlink="http://www.w3.org/1999/xlink" viewBox="0 0 200 200"><defs><linearGradient id="linear-gradient" x1="100" y1="100" x2="200" y2="200" gradientUnits="userSpaceOnUse"><stop offset="0" stop-color="#1c6097"/><stop offset="1" stop-color="#afd7f2"/></linearGradient></defs><title>typescript</title><g id="typescript"><rect width="200" height="200" style="fill:#fff"/><polygon points="200 40 180 20 20 180 40 200 200 200 200 40" style="opacity:0.5;fill:url(#linear-gradient)"/><rect id="rect7" x="20" y="20" width="160" height="160" style="fill:#fff"/><path id="path4" d="M20,100v80H180V20H20v80Zm98.125-2.812v7.188H97.5V170H80.625V104.375H60V90h58.125v7.188Zm40.625-6.312a57.435,57.435,0,0,1,6.438,1.563l1.687,0.687v7.813a64.32,64.32,0,0,1-.25,7.813,32.069,32.069,0,0,1-2.937-1.5c-5.625-3.188-14.625-4.375-20.125-2.75a11.915,11.915,0,0,0-4.25,2.563c-1.5,1.438-1.812,2.312-1.812,4.625,0,2.5.313,3.188,2.375,5.125,1.313,1.25,6.187,4.125,10.938,6.5,10,4.937,15.063,9.125,17.375,14.312,2.063,4.625,2.125,14.375.125,18.75a22.811,22.811,0,0,1-10.063,10.25c-8.625,4.063-22.688,4.438-33.687.813l-3.938-1.313V148.75L123.75,151a28.845,28.845,0,0,0,14.812,5.125c5.5,0.375,9.563-.625,12.063-3,1.563-1.438,1.875-2.25,1.875-4.625,0-4.563-2.625-6.938-13.375-12.187-9.5-4.687-12.5-6.812-15.312-10.937-6.25-9.062-4.375-22.937,4-29.25,7.125-5.437,18.938-7.438,30.938-5.25h0Z" style="fill:#2479bf"/></g></svg>