<svg xmlns="http://www.w3.org/2000/svg" xmlns:xlink="http://www.w3.org/1999/xlink" viewBox="0 0 200 200"><defs><clipPath id="a"><path d="M176.364,85.455H101.818v30.909h42.909c-4,19.636-20.727,30.909-42.909,30.909a47.273,47.273,0,0,1,0-94.545,46.249,46.249,0,0,1,29.455,10.545L154.545,40a79.949,79.949,0,1,0-52.727,140c40,0,76.364-29.091,76.364-80A66.368,66.368,0,0,0,176.364,85.455Z" style="fill:none"/></clipPath></defs><title>google</title><rect width="200" height="200" style="fill:#fff"/><g style="clip-path:url(#a)"><polygon points="14.545 147.273 14.545 52.727 76.364 100 14.545 147.273" style="fill:#f9bc15"/></g><g style="clip-path:url(#a)"><polygon points="14.545 52.727 76.364 100 101.818 77.818 189.091 63.636 189.091 12.727 14.545 12.727 14.545 52.727" style="fill:#ea4535"/></g><g style="clip-path:url(#a)"><polygon points="14.545 147.273 123.636 63.636 152.364 67.273 189.091 12.727 189.091 187.273 14.545 187.273 14.545 147.273" style="fill:#36a852"/></g><g style="clip-path:url(#a)"><polygon points="189.091 187.273 76.364 100 61.818 89.091 189.091 52.727 189.091 187.273" style="fill:#557ebf"/></g></svg>