<svg xmlns="http://www.w3.org/2000/svg" viewBox="0 0 200 200"><title>nintendo</title><rect width="200" height="200" style="fill:#fff"/><path d="M39.388,80.634a19.388,19.388,0,1,0,0,38.775c11.651,0,121.225-.041,121.225-0.041a19.389,19.389,0,0,0,0-38.778l-121.225.043" style="fill:#fff"/><path d="M160.612,84.85a15.119,15.119,0,0,1,10.69,25.822,14.964,14.964,0,0,1-10.69,4.431l-121.225.046a15.127,15.127,0,0,1,0-30.254ZM39.388,80.634a19.388,19.388,0,1,0,0,38.775c11.651,0,121.225-.041,121.225-0.041a19.389,19.389,0,0,0,0-38.778l-121.225.043" style="fill:#ed1c26"/><path d="M54.907,90.644v18.33H49.07L41.608,96.556C41.2,95.741,41.2,96.54,41.2,96.54v12.434H35.222V90.644H41.2s7.119,11.74,7.508,12.292c0.366,0.552.366,0,.366,0V90.644h5.837" style="fill:#ed1c26"/><path d="M57.883,93.983h5.471v-3.34H57.883v3.34Z" style="fill:#ed1c26"/><path d="M92.423,93.345v1.987h2.449l0.092,1.209H92.423v12.434h-5.7V96.54H84.16l0.069-1.209h2.495V93.345h5.7" style="fill:#ed1c26"/><path d="M81.6,97.151a6.5,6.5,0,0,1,1.854,3.207v8.616H77.705V100.5a2.643,2.643,0,0,0-2.678-1.987,2.6,2.6,0,0,0-2.655,1.843v8.616H66.764V96.54h5.608c0.572,1.067,1.923-.213,3.09-0.412A7.679,7.679,0,0,1,81.6,97.151" style="fill:#ed1c26"/><path d="M57.883,108.974h5.471V96.54H57.883v12.434Z" style="fill:#ed1c26"/><path d="M105.631,106.914a2.456,2.456,0,0,1-2.312,1.705,2.408,2.408,0,0,1-2.22-1.918l0.069-3.768h10.415c-0.023-3.479-1.488-4.83-2.678-5.684a11.059,11.059,0,0,0-11.88.838,6.087,6.087,0,0,0-1.946,4.69,6.213,6.213,0,0,0,1.785,4.349,10.475,10.475,0,0,0,8.79,2.046c2.129-.682,4.853-1.705,5.448-4.093h-5.448Zm-4.349-7.876a2.208,2.208,0,0,1,2.22-1.646,2.07,2.07,0,0,1,2.06,1.806l0.046,1.676h-4.326V99.037" style="fill:#ed1c26"/><path d="M142.712,90.641v6.377c-1.877-1.023-5.013-1.66-6.981-.38-2.472,1.193-3.319,4.008-3.411,6.48a6.959,6.959,0,0,0,2.815,5.116,7.946,7.946,0,0,0,7.05.472,5.525,5.525,0,0,0,.618-0.3,2.389,2.389,0,0,0,.664.343,13.173,13.173,0,0,0,4.509.227V90.641h-5.265Zm0,16.112a2.424,2.424,0,0,1-2.2,1.225,3.3,3.3,0,0,1-2.152-.922V98.884a1.931,1.931,0,0,1,2.014-1.135,2.769,2.769,0,0,1,2.335,1.135v7.87" style="fill:#ed1c26"/><path d="M128.75,97.2a6.709,6.709,0,0,1,1.854,3.207v8.616h-5.768V100.55a2.632,2.632,0,0,0-2.655-1.987,2.575,2.575,0,0,0-2.655,1.843v8.616h-5.631V96.588h5.631c0.549,1.067,1.9-.213,3.067-0.41A7.748,7.748,0,0,1,128.75,97.2" style="fill:#ed1c26"/><path d="M158.712,95.76c-4.624,0-8.355,3.037-8.355,6.785s3.731,6.782,8.355,6.782c4.6,0,8.332-3.038,8.332-6.782S163.313,95.76,158.712,95.76Zm2.243,10.822a2.439,2.439,0,0,1-2.22,1.225,3.28,3.28,0,0,1-2.129-.922V98.712a1.885,1.885,0,0,1,1.991-1.135,2.843,2.843,0,0,1,2.358,1.135v7.87" style="fill:#ed1c26"/><path d="M167.3,97.476a3.032,3.032,0,1,0-2.129-.884A3.008,3.008,0,0,0,167.3,97.476Zm-2.426-3.012a2.392,2.392,0,0,1,.71-1.708,2.437,2.437,0,0,1,3.433,0,2.469,2.469,0,0,1,.687,1.708,2.415,2.415,0,0,1-4.83,0" style="fill:#ed1c26"/><path d="M166.655,93.235h1.03a0.88,0.88,0,0,1,.343.06,0.485,0.485,0,0,1,.229.446,0.48,0.48,0,0,1-.183.421,0.785,0.785,0,0,1-.458.117h-0.961V93.235Zm0,2.7V94.624h0.961a0.862,0.862,0,0,1,.366.055,0.464,0.464,0,0,1,.229.4l0.023,0.508a0.623,0.623,0,0,0,.023.243,0.151,0.151,0,0,0,.023.1h0.5V95.865a0.222,0.222,0,0,1-.114-0.185,0.7,0.7,0,0,1-.046-0.261l-0.023-.41a0.586,0.586,0,0,0-.092-0.385,0.483,0.483,0,0,0-.275-0.192,0.786,0.786,0,0,0,.32-0.279,0.857,0.857,0,0,0-.32-1.174,1.35,1.35,0,0,0-.572-0.1h-1.419v3.058h0.412" style="fill:#ed1c26"/></svg>