<svg xmlns="http://www.w3.org/2000/svg" viewBox="0 0 200 200"><title>sesame</title><rect width="200" height="200" style="fill:#fff"/><path d="M167.932,86.155c5.927,0.216,11.959,6.465,12.068,13.361V122.9c0,6.357-5.6,12.39-9.7,12.39L31.314,135.5c-5.818-.216-10.775-4.633-10.99-13.683L20,99.515c0.108-7.758,5.926-13.253,10.775-13.253l31.353-.323C75.6,87.016,72.687,64.714,100.377,64.5c19.394-.108,26.72,21.226,35.772,21.226l31.783,0.431h0Z" style="fill:#64aa72"/><path d="M165.777,88.094a11.938,11.938,0,0,1,11.959,12.283l0.109,21.549a11.356,11.356,0,0,1-11.852,11.528l-131.878.323a11.774,11.774,0,0,1-11.852-11.959V100.27A11.751,11.751,0,0,1,34.222,88.526l28.983-.108c12.821,0.97,12.283-21.226,35.986-21.226,22.412-.108,26.613,21.01,35.233,20.9h31.352Z" style="fill:#f8e147"/><path d="M35.084,93.266l130.586-.323a8.185,8.185,0,0,1,8.188,8.189v19.825a7.873,7.873,0,0,1-8.081,8.08l-130.584.324a8.185,8.185,0,0,1-8.3-8.081V101.455a8.184,8.184,0,0,1,8.188-8.189h0Z" style="fill:#64aa72"/><path d="M75.057,88.094c7.865-2.155,9.374-15.945,24.243-16.053,14.869,0,18.316,14.007,25.536,15.946l-49.779.107h0Z" style="fill:#64aa72"/><path d="M42.411,115.568c0.108-6.68-6.034-6.357-6.034-10.451-0.108-1.4.539-2.263,1.509-2.263,1.293,0,1.4,1.616,1.4,3.233H42.3c0.216-4.418-1.293-6.465-4.31-6.358-3.664-.108-4.74,2.586-4.74,6.034,0,6.357,6.141,6.572,6.249,10.344-0.108,1.509-.647,2.478-1.616,2.478-1.724,0-1.724-1.725-1.724-3.771H33.144c-0.216,3.663.539,7,4.31,6.895,2.264,0.109,5.065-.646,4.957-6.141h0Z" style="fill:#fff"/><polygon points="52.431 121.387 52.431 118.155 47.475 118.155 47.475 111.798 52 111.798 52 108.566 47.475 108.566 47.367 103.395 52.324 103.287 52.324 99.946 44.458 100.054 44.458 121.387 52.431 121.387" style="fill:#fff"/><path d="M63.205,115.461c0-6.68-6.141-6.249-6.141-10.343,0-1.509.647-2.263,1.616-2.263,1.185,0,1.4,1.616,1.4,3.233H63.1c0.107-4.526-1.293-6.465-4.31-6.465-3.663,0-4.74,2.694-4.848,6.142,0.108,6.249,6.249,6.465,6.249,10.344,0,1.4-.539,2.37-1.509,2.478-1.724-.108-1.724-1.725-1.832-3.771H53.832c-0.108,3.663.539,6.895,4.309,6.895,2.371,0,5.064-.646,5.064-6.249h0Z" style="fill:#fff"/><path d="M66.869,121.28l0.862-4.634h4.094l0.754,4.634h3.232L71.825,99.946H67.838L63.852,121.28h3.017Zm4.309-7.973H68.269l1.293-9.158h0.216l1.4,9.158h0Z" style="fill:#fff"/><polygon points="80.337 121.28 80.337 104.795 83.031 121.28 85.939 121.28 88.74 104.795 88.74 121.28 91.757 121.28 91.65 99.946 87.017 99.946 84.539 114.492 82.277 99.946 77.32 99.946 77.428 121.28 80.337 121.28" style="fill:#fff"/><polygon points="101.669 121.28 101.669 118.048 96.499 118.048 96.499 111.69 101.023 111.69 101.023 108.458 96.499 108.458 96.499 103.179 101.347 103.179 101.347 99.839 93.482 99.946 93.589 121.28 101.669 121.28" style="fill:#fff"/><path d="M116.97,115.353c0-6.68-6.142-6.249-6.142-10.344,0-1.508.647-2.262,1.617-2.262,1.184,0,1.4,1.616,1.4,3.233h3.016c0.109-4.526-1.293-6.465-4.309-6.465-3.663,0-4.74,2.693-4.74,6.033,0,6.358,6.142,6.573,6.034,10.452,0.109,1.4-.431,2.37-1.4,2.478-1.724-.109-1.724-1.833-1.833-3.879l-2.908.108c-0.216,3.663.431,6.9,4.309,6.9,2.261,0,4.956-.646,4.956-6.249h0Z" style="fill:#fff"/><polygon points="117.508 99.839 117.508 103.395 120.848 103.395 120.848 121.172 123.973 121.172 123.973 103.395 127.312 103.395 127.312 99.839 117.508 99.839" style="fill:#fff"/><path d="M131.73,103.179h1.293c0.969-.108,1.509.754,1.509,2.694,0,1.4-.322,3.232-1.509,3.232H131.73v-5.926h0Zm0,9.158h0.647c2.478,0,2.263,2.155,2.37,4.74a12.979,12.979,0,0,0,.216,4.095h3.016c-0.322-.862-0.322-4.848-0.322-6.25,0-3.878-2.048-4.094-2.694-4.309,1.94-.431,2.694-2.478,2.694-5.171,0-3.664-1.293-5.6-3.447-5.6h-5.5L128.6,121.172h3.125v-8.835h0Z" style="fill:#fff"/><polygon points="147.677 121.172 147.677 117.94 142.72 117.94 142.72 111.582 147.246 111.582 147.246 108.35 142.72 108.35 142.613 103.179 147.569 103.071 147.569 99.731 139.703 99.839 139.703 121.172 147.677 121.172" style="fill:#fff"/><polygon points="157.158 121.064 157.158 117.94 152.094 117.94 152.094 111.582 156.618 111.582 156.618 108.35 152.094 108.35 151.987 103.071 156.943 103.071 156.943 99.731 149.077 99.731 149.077 121.172 157.158 121.064" style="fill:#fff"/><polygon points="158.127 99.731 158.127 103.287 161.468 103.287 161.576 121.064 164.484 121.064 164.484 103.287 167.932 103.287 167.932 99.731 158.127 99.731" style="fill:#fff"/><path d="M101.131,76.243c0.322,0.539,0,1.509.107,2.155H99.731v6.68a15.78,15.78,0,0,1-2.263,0,42.881,42.881,0,0,1,0-6.572,11.959,11.959,0,0,0-2.047.323c0-.97-0.107-1.94-0.107-1.94,2.047-1.078,4.956-.754,5.818-0.647h0Z" style="fill:#fff"/><path d="M104.47,79.691c0.216-.431.431-1.832,0.647-2.478a18.137,18.137,0,0,0,2.372.97,10.933,10.933,0,0,0,.753,2.478l0.647-1.94a5.5,5.5,0,0,1,1.509,1.185s-0.647,2.155-1.293,5.171l-1.724-.108s-1.184-3.232-1.293-3.34a21.132,21.132,0,0,0-1.293,3.447h-1.833l-1.078-8.835a7.211,7.211,0,0,1,2.155.754s0.218,1.724.432,2.694h0Z" style="fill:#fff"/><path d="M94.128,79.367c0,0.431-3.34,0-3.987,2.263-0.323.754,0.431,1.293,0.862,1.616a7.193,7.193,0,0,0,3.232-.647,4.56,4.56,0,0,1,.216,1.724c-1.616,1.078-4.2,1.724-5.71,0a3.972,3.972,0,0,1-.539-3.663c0.647-2.37,3.34-3.017,5.6-3.233l0.324,1.939h0Z" style="fill:#fff"/><path d="M167.932,117.832H168.9a0.7,0.7,0,0,1,.862.647,0.683,0.683,0,0,1-.54.647l0.862,1.078-0.431.108-0.753-1.078h-0.54v1.078h-0.431v-2.478h0Zm0.43,1.185h0.324a0.541,0.541,0,0,0,.647-0.539,0.434,0.434,0,0,0-.54-0.431h-0.431v0.97h0Zm-1.723.108a2.21,2.21,0,1,1,4.418,0,2.21,2.21,0,1,1-4.418,0h0Zm3.987,0a1.816,1.816,0,0,0-1.833-1.832,1.888,1.888,0,0,0-1.831,1.832,1.835,1.835,0,1,0,3.664,0h0Z" style="fill:#fff"/></svg>