<svg xmlns="http://www.w3.org/2000/svg" viewBox="0 0 200 200"><title>starbucks</title><rect width="200" height="200" style="fill:#fff"/><path d="M99.544,48.123a42.632,42.632,0,0,1,8.174,6l-0.9.908c-4.541-.483-9.323.12-13.628,0.186-0.48-.484-1.447-1.213-0.546-1.821l6.9-5.27h0Zm80.289,56.4c0.06,2.05.253,3.81-.546,5.907-8.3,2.359-13.745-6.424-21.793-5.1l0.91,4.553c7.446,0.245,12.1,7.385,19.791,7.079-1.093,2.183.488,7.934-4.355,5.635-5.026-1.208-8.66-5.635-14.168-5.635-0.665,1.22-.244,2.91-0.36,4.353,5.81,0.912,9.989,5.822,15.8,6.729-0.546,2-1.088,4.232-2.724,5.449-4.726-1.15-8.417-5.394-13.448-5.273l-0.9,4.18c4.781,0.123,7.87,4.353,12.167,5.623,0.118,1.763-1.458,3.339-2.366,4.913-3.815-1.146-6.724-4.423-11.082-4.181-0.06-1.642.914-3.507,0.546-5.262-4.9,1.456-8.177-3.092-11.805-5.821-0.1-8.928-9.5-14.786-10-23.15a12.423,12.423,0,0,1,.919-5.361c3.089-7.143,2.119-16.416-1.269-23.076a13.067,13.067,0,0,0-4.553-4.166c2.487,5.27,5.517,11.5,4,17.974-0.175,5-3.127,9.806-3.16,14.628a10.052,10.052,0,0,0,1.344,5.175c3.938,7.093,11.023,13.807,8.359,22.7-0.733,2.732-2.914,4.845-3.458,7.626,4.607,3.816,8.963,8.115,15.076,8.358,2.178-1.391.968-7.56,5.449-4.715l6.542,3.273a10.49,10.49,0,0,1-3.271,4.527c-2.482-1.208-4.9-2.656-8-2.538a4.73,4.73,0,0,0-1.628,3.445,14.591,14.591,0,0,1,6,2.551c-0.845,1.819-2.491,2.96-4,4.353l-5.075-1.815c-0.847,1.213-2.608,2.487-1.99,3.817a10.59,10.59,0,0,1,3.258,2c-2.24,2.421-5.08,3.979-7.812,5.623-2.353-7.692-10.107-13.085-9.442-21.98l-0.36-.36c-1.823,2.049-1.214,5.326-1.1,7.985,2.181,5.572,7.384,9.875,8.174,15.985-0.911,1.572-2.965,1.886-4.541,2.551,0.183-11.016-16.526-19.37-5.811-30.513,3.574-5.456,9.561-10.663,7.439-18.175-2.178-7.253-9.882-11.747-9.814-19.877l0.012-.634c1.755-8.479,7.085-17.5,2.725-26.521-1.215-3.628-3.931-7.751-7.624-9.267a25.951,25.951,0,0,1,4.539,25.066c-1.588,3.373-3.773,7.392-3.993,11.357h-0.013a9.49,9.49,0,0,0,1.642,6.083c4.181,6.784,11.442,14.235,7.265,23.075-4.722,7.081-12.956,14.283-8.358,23.61,3.33,5.57,8.481,11.128,7.091,17.975l-5.449,1.815c3.633-12.771-14.17-20.276-6.717-33.051,4.6-6.841,12.83-13.26,8.172-22.34-2.785-5.626-8.539-8.956-8.358-15.986l0.2-1.18c1.875-9.971,9.455-19.41,4.155-30.065a18.934,18.934,0,0,0-7.265-8.172l-0.187.187a22.016,22.016,0,0,1,4.727,23.783c-1.554,4.651-4.966,9.284-5.659,14.269a11.719,11.719,0,0,0,1.306,7.351c3.935,6.231,10.836,12.841,6.529,20.9-4.535,6.654-12.105,13.128-9.081,21.782,3.331,7.571,10.286,14.782,6.53,24.17L113.346,180c4.479-9.148-2.237-18.226-6.171-26.16-4.786-11.383,10.282-16.834,10.524-27.241-0.057-6.717-7.2-10.531-8.707-16.706-3.091-2.608-6.294,1.037-9.989.36-2.728.548-6.917-3.755-8.546,0.909-1.939,6.838-10.773,11.865-6.891,19.976,3.694,7.208,12.585,12.478,9.615,21.805-2.659,8.712-11.443,17.008-6,27.056-2.238-.725-6.417.663-6.357-2.912-3.449-12.169,11.261-19.258,6.717-31.421-2.114-7.45-11.748-11.565-9.627-20.525,1.568-7.376,9.844-12.532,8.684-20.611a11.924,11.924,0,0,0-.5-2.09C83.014,93.721,76.712,85,80.468,74.825c1.031-2.906,3.091-5.388,4.9-7.986-5.994,3.208-9.018,9.991-8.894,16.891-0.261,7.5,5.282,13.932,6.071,20.8a12.676,12.676,0,0,1-2.078,8.619c-3.932,5.336-9.075,10.962-6.717,17.988,2.242,7.087,11.08,11.38,10.536,19.617-0.06,9.744-11.382,15.811-8.173,26.708l-5.635-1.828c-2.237-9.683,8.053-14.638,8.171-23.6,1.456-10.3-11.685-14.126-10.9-24.17-0.057-7.631,6.661-12.464,9.627-18.883a12.294,12.294,0,0,0,.61-4.453c-0.364-7.1-6.759-12.646-5.7-20.625a25.256,25.256,0,0,1,6.171-15.437c-5.265,2.115-7.439,8.175-8.894,13.262-2.524,8.156,3.5,15.493,4.1,22.8a12.069,12.069,0,0,1-3.557,9.715c-4.362,5.14-8.785,11.625-5.636,18.533,3.335,7.622,13.811,13.555,9.267,23.062-2.479,5.995-8.415,10.533-8.171,17.614a15.453,15.453,0,0,1-4.541-2.538c0-9.019,12.83-14.653,6.717-24.158-0.542,1.875-.658,4.424-1.082,6.543-2.121,5.512-6.661,9.924-8.359,15.623a24.972,24.972,0,0,1-8.173-5.821l3.273-2a10.309,10.309,0,0,0-2.176-3.27c-2.125-.3-3.521,1.1-5.273,1.642a27.235,27.235,0,0,1-4.181-4.18c1.086-3.094,9.574-.536,5.274-5.623-2.9-1.815-5.817.778-8.359,1.988l-3.446-4.353c2.967-1.815,5.926-4.363,9.616-3.632,0.909,1.638.973,4.046,2.725,4.9,6.237-.121,10.656-4.839,15.438-8.533-3.332-4.959-6.045-11.8-3.085-17.8,2.372-6.009,8.552-11.07,8.832-17.713a11.812,11.812,0,0,0-.834-4.815C64.676,91.3,63.523,79.92,69.76,72.47c-3.391.911-5.391,5.138-6.543,8.347-3.749,8.219.993,15.833,1.157,23.709a16.985,16.985,0,0,1-.436,4.267c-3.21,6.478-8.411,12.161-9.256,19.615-3.694,2.357-6.727,6.478-11.992,5.087a13.949,13.949,0,0,0,.722,5.087c-4.174-.175-7.021,2.9-10.536,4.355-1.872-.6-2.359-3.021-3.084-4.715,4.114-1.389,7.082-5.514,11.805-5.449,0.548-1.521-.307-2.915-0.548-4.367-5.876-2.608-15.19,12.892-15.973-.546,5.871-.364,9.623-5.814,15.438-6.357l0.174-4.353c-6.6-.667-10.844,6.117-17.441,5.449l-1.455-5.809c7.63,0.477,12.177-6.361,19.443-6.729,0.966-1.27,1.082-3.147,1.268-4.9-7.932-1.034-13.375,7.757-21.793,5.087,0,0-.29-3.658-0.447-5.721h0.011c-0.057-.807-0.112-1.369-0.112-1.369,7.507,2.913,14.1-2.479,20.525-5.262,1.633-.489,4.18.359,4.913-1.456-0.064-1.393,2.476-3.021.362-3.993-9.389-1.274-15.626,10.05-25.253,4.9l-0.722-1.456c2-27.362,17.435-53.816,43.042-66.834C73.4,23.131,86.286,20.11,99.28,20c15.682-.13,31.527,3.983,43.314,12.327,11.447,7.021,22.4,18.593,28.338,30.339,5.683,10.292,8.3,21.84,9.08,34.135-9.932,7.5-16.594-7.07-26.708-3.808,0.545,1.577.846,3.209,2,4.541,8.963-.063,15.136,9.322,24.518,5.623l0.008,1.368h0ZM65.751,70.829c-6.3-4.118-14.282-.241-20.151,2A19.723,19.723,0,0,0,38.15,58.665a4.963,4.963,0,0,0-1.643-.734,0.936,0.936,0,0,0-.908.546c2.116,13.015-6.345,22.1-12.34,31.969,2,1.632,5.2,1.388,7.625.908,6.356-2.542,12.41-6.965,19.978-5.449,2.238-3.814,6-7.508,9.081-10.536,1.884-1.63,4.472-2.665,5.808-4.541h0ZM85.008,79c-0.121.784,0.06,2.181,1.269,1.641,1.88-2.6,5.208-.544,7.265-0.36V79.551a6.52,6.52,0,0,0-5.809-2.574A8.593,8.593,0,0,0,86.1,77.2a1.412,1.412,0,0,0-1.1,1.8h0Zm29.605-7.8c-1.69-3.755-5.566-5.274-9.082-6.182a47.215,47.215,0,0,0-5.287-.373c-0.333,0-.665-0.008-1,0-4.963.1-9.705,1.374-12.6,5.459-0.416,1.153-2.244,2.773-.546,3.807,3.815-.244,8.168-0.722,10.71,2.551,0,2.909,1.878,6.779-1.269,8.172-2.608-2.414-5.7,1.028-8.533-.91-1.334-.788-2.178.132-2.725,1.282a21.332,21.332,0,0,0,10.163,19.965c2.846,1.026,6.671,2,9.641.546,7.144-3.326,10.1-10.95,11.433-17.974-0.179-1.337-.115-3.941-1.99-4-2.118,1.339-5.206.548-7.451,0-1.327.428-1.388,2.37-2.9,2.738l-0.92-.734c-0.788-3.325-1.274-8.049,1.817-10.349a17.037,17.037,0,0,1,11.082-.908c0.667-1.149-.362-2.055-0.549-3.084h0Zm-3.645,5.97c-0.24.006-.473,0.018-0.71,0.026-1.269.846-4.966,0.238-3.631,3.085,2.3-1.821,5.511-.545,7.812.36,0.851-.422.666-1.27,0.722-2C114.423,77.268,112.658,77.139,110.968,77.173Zm26.36-25.6c-4.481-.238-8.234,2.306-12.352,3.457-0.359-3.5,2.3-7.2,2.911-10.722-6.658.428-11.931,4.436-17.439,7.637q-1.912-4.62-3.819-9.267l7.265-6.9,0.186-.909-9.813-.546c-1.69-2.962-2.357-6.529-4.355-9.254-1.635,3.088-2.733,6.355-4.367,9.44l-9.8.548v0.722l7.439,6.717c-0.909,3.453-1.755,7.2-3.993,9.814-4.359-2.611-8.656-5.452-13.435-7.265-1.15-.371-2.789-0.975-3.818-0.186,1.511,3.331,3.628,6.914,3.272,10.549-2-.368-3.57-1.65-5.449-2.188-2.246-.613-4.911-1.81-7.091-1.082,3.633,5.083,6.6,10.4,7.625,16.519,12.054-5.818,26.11-9.017,40.7-6.531,6.84,1.089,13.129,3.875,19.245,6.17,0.239-6.414,4.3-11.568,7.086-16.718h0Zm20.7,34.878c6.171,1.633,12.361,8.356,18.9,3.994C171.232,81,162.762,72.283,165.118,59.934a1.421,1.421,0,0,0-1.082-1.816c-3.692,1.509-6.551,5.146-8.011,8.721a54.072,54.072,0,0,1-1.8,6.355c-4.423-2.3-9.142-4.531-14.53-3.993-1.943.242-4.728,0.37-5.087,2.364,6.115,3.268,11.143,8.721,14.89,14.528a29.075,29.075,0,0,1,8.533.359h0Zm-64.66,8.534,0.174,1.094c2.366,1.576,3.094,4.247,6.369,4,2.9,0.173,5.084-2.549,6.531-4.727-3.931-.543-8.713.3-13.074-0.372h0Zm3.271-4.9c0.118,0.485-.3,1.212.36,1.456,1.938-.421,5.447,1.031,6.529-1.27a4.351,4.351,0,0,0-3.283-1.231A6.568,6.568,0,0,0,96.638,90.086Z" style="fill:#057043"/><path d="M93.372,87.985h13.275v5.454H93.372V87.985Z" style="fill:#fff;opacity:0.9900000095367432;isolation:isolate"/><path d="M95.824,90.9c1.715,0.406,2.14,1.014,3.5,1.184,1.441-.026,1.233-0.318,3.747-1.186a0.438,0.438,0,0,0,.11-0.7c-1.561-1.549-2.64-.442-3.618-0.413-1.3.014-2.516-1.111-3.784,0.352-0.216.3-.329,0.589,0.048,0.765h0Z" style="fill:#057043"/></svg>