<?xml version="1.0" standalone="no"?>
<!DOCTYPE svg PUBLIC "-//W3C//DTD SVG 20010904//EN"
 "http://www.w3.org/TR/2001/REC-SVG-20010904/DTD/svg10.dtd">
<svg version="1.0" xmlns="http://www.w3.org/2000/svg"
 width="150.000000pt" height="150.000000pt" viewBox="0 0 150.000000 150.000000"
 preserveAspectRatio="xMidYMid meet">
<metadata>
Created by potrace 1.11, written by Peter Selinger 2001-2013
</metadata>
<g transform="translate(0.000000,150.000000) scale(0.100000,-0.100000)"
fill="#000000" stroke="none">
<path d="M0 750 l0 -750 750 0 750 0 0 750 0 750 -750 0 -750 0 0 -750z m1039
274 c20 -25 21 -39 21 -234 0 -268 5 -260 -147 -260 -96 0 -105 -1 -98 -17 5
-10 8 -29 9 -43 l1 -25 -115 0 -115 0 1 25 c1 14 4 33 9 43 7 16 -2 17 -99 17
-154 0 -146 -14 -146 260 0 207 1 221 20 240 19 19 33 20 329 20 l310 0 20
-26z"/>
<path d="M420 835 l0 -155 290 0 290 0 0 155 0 155 -290 0 -290 0 0 -155z"/>
</g>
</svg>
